<svg width="60" height="60" viewBox="0 0 60 60" fill="none" xmlns="http://www.w3.org/2000/svg">
<g clip-path="url(#clip0_150_700)">
<path fill-rule="evenodd" clip-rule="evenodd" d="M3.92296 11.9938H56.0833L51.5856 3.00468H8.42686L3.92296 11.9938ZM59.7814 12.7059C59.9188 12.937 60.0062 13.2056 60.0062 13.4992V31.4898C60.0062 32.3207 59.3316 32.9891 58.507 32.9891C57.6825 32.9891 57.0078 32.3144 57.0078 31.4898V30.0031H3.00468V42.0031H31.4836C32.3144 42.0031 32.9828 42.6778 32.9828 43.5023C32.9828 44.3269 32.3082 45.0016 31.4836 45.0016H3.00468V57.0016H31.4836C32.3144 57.0016 32.9828 57.6762 32.9828 58.5008C32.9828 59.3253 32.3082 60 31.4836 60H1.49922C0.668402 60 0 59.3316 0 58.5008V13.493C0 13.1994 0.0812077 12.9308 0.224883 12.6996L6.16554 0.830817C6.43415 0.306091 6.95888 0 7.50234 0H52.4977C53.1348 0 53.6783 0.387298 53.8969 0.949505L59.7689 12.6996L59.7814 12.7059ZM7.50234 53.9969C6.67777 53.9969 6.00312 53.3222 6.00312 52.4977C6.00312 51.6731 6.67777 50.9984 7.50234 50.9984H10.5008C11.3254 50.9984 12 51.6731 12 52.4977C12 53.3222 11.3254 53.9969 10.5008 53.9969H7.50234ZM7.50234 23.9875C6.67777 23.9875 6.00312 23.3129 6.00312 22.482C6.00312 21.6512 6.67777 20.9828 7.50234 20.9828H10.5008C11.3254 20.9828 12 21.6575 12 22.482C12 23.3066 11.3254 23.9875 10.5008 23.9875H7.50234ZM16.5039 23.9875C15.6793 23.9875 14.9984 23.3129 14.9984 22.482C14.9984 21.6512 15.6731 20.9828 16.5039 20.9828H19.5023C20.3269 20.9828 21.0078 21.6575 21.0078 22.482C21.0078 23.3066 20.3332 23.9875 19.5023 23.9875H16.5039ZM7.50234 38.9922C6.67777 38.9922 6.00312 38.3175 6.00312 37.4867C6.00312 36.6559 6.67777 35.9875 7.50234 35.9875H10.5008C11.3254 35.9875 12 36.6622 12 37.4867C12 38.3113 11.3254 38.9922 10.5008 38.9922H7.50234ZM16.5039 38.9922C15.6793 38.9922 14.9984 38.3175 14.9984 37.4867C14.9984 36.6559 15.6731 35.9875 16.5039 35.9875H19.5023C20.3269 35.9875 21.0078 36.6622 21.0078 37.4867C21.0078 38.3113 20.3332 38.9922 19.5023 38.9922H16.5039ZM16.5039 53.9969C15.6793 53.9969 14.9984 53.3222 14.9984 52.4977C14.9984 51.6731 15.6731 50.9984 16.5039 50.9984H19.5023C20.3269 50.9984 21.0078 51.6731 21.0078 52.4977C21.0078 53.3222 20.3332 53.9969 19.5023 53.9969H16.5039ZM3.00468 26.9922H57.0016V14.9922H3.00468V26.9922ZM35.9813 37.4805C35.9813 34.9943 37.9927 32.9828 40.4789 32.9828H51.2296C52.4227 32.9828 53.5658 33.4576 54.4092 34.3009L58.6507 38.5424C59.494 39.3857 59.9688 40.5289 59.9688 41.722V55.4711C59.9688 57.9573 57.9573 59.9688 55.4711 59.9688H40.4789C37.9927 59.9688 35.9813 57.9573 35.9813 55.4711V37.4805ZM40.4789 35.9813C39.6481 35.9813 38.9797 36.6559 38.9797 37.4805V55.4711C38.9797 56.3019 39.6481 56.9703 40.4789 56.9703H55.4711C56.2957 56.9703 56.9703 56.3019 56.9703 55.4711V41.722C56.9703 41.3222 56.8142 40.9412 56.5331 40.6601L52.2915 36.4185C52.0104 36.1374 51.6294 35.9813 51.2296 35.9813H40.4789ZM41.9781 43.4774C41.9781 42.6528 42.6465 41.9781 43.4774 41.9781H46.4758C47.3004 41.9781 47.975 42.6528 47.975 43.4774C47.975 44.3019 47.3004 44.9766 46.4758 44.9766H43.4774C42.6528 44.9766 41.9781 44.3082 41.9781 43.4774ZM41.9781 49.4742C41.9781 48.6497 42.6465 47.975 43.4774 47.975H52.4727C53.3035 47.975 53.9719 48.6497 53.9719 49.4742C53.9719 50.2988 53.2972 50.9734 52.4727 50.9734H43.4774C42.6528 50.9734 41.9781 50.305 41.9781 49.4742Z" fill="#33CC99"/>
</g>
<defs>
<clipPath id="clip0_150_700">
<rect width="60" height="60" fill="white"/>
</clipPath>
</defs>
</svg>
