<svg width="60" height="60" viewBox="0 0 60 60" fill="none" xmlns="http://www.w3.org/2000/svg">
<g clip-path="url(#clip0_150_686)">
<path fill-rule="evenodd" clip-rule="evenodd" d="M3 17.2C1.20625 16.1625 0 14.225 0 12V1.5C0 0.66875 0.675 0 1.5 0H55.5C56.3313 0 57 0.66875 57 1.5V12C57 14.2188 55.7938 16.1625 54 17.2V25.5C54 26.3312 53.325 27 52.5 27C51.675 27 51 26.325 51 25.5V18C49.2062 18 47.6 17.2125 46.5 15.9688C45.4 17.2125 43.7937 18 42 18C40.2062 18 38.6 17.2125 37.5 15.9688C36.4 17.2125 34.7938 18 33 18C31.2062 18 29.6 17.2125 28.5 15.9688C27.4 17.2125 25.7938 18 24 18C22.2063 18 20.6 17.2125 19.5 15.9688C18.4 17.2125 16.7938 18 15 18C13.2063 18 11.6 17.2125 10.5 15.9688C9.4 17.2125 7.79375 18 6 18V57H31.5C32.3312 57 33 57.675 33 58.5C33 59.325 32.3312 60 31.5 60H6C4.34375 60 3 58.6562 3 57V17.2ZM9 3H3V12C3 13.6563 4.34375 15 6 15C7.65625 15 9 13.6563 9 12V3ZM45 3V12C45 13.6563 43.6562 15 42 15C40.3437 15 39 13.6563 39 12V3H45ZM48 12V3H54V12C54 13.6563 52.6562 15 51 15C49.3438 15 48 13.6563 48 12ZM27 3H21V12C21 13.6563 22.3438 15 24 15C25.6563 15 27 13.6563 27 12V3ZM30 3V12C30 13.6563 31.3438 15 33 15C34.6562 15 36 13.6563 36 12V3H30ZM18 3V12C18 13.6563 16.6562 15 15 15C13.3438 15 12 13.6563 12 12V3H18ZM42.5125 25.1375C43.2125 25.6438 43.075 26.675 42.3812 27.2C41.7437 27.6812 40.8625 27.5187 40.1188 27.2188C39.775 27.0812 39.4 27.0062 39 27.0062H18C16.3438 27.0062 15 28.35 15 30.0062V45.0063C15 46.6625 16.3438 48.0062 18 48.0062H31.5C32.3312 48.0062 33 48.6812 33 49.5062C33 50.3312 32.3312 51.0062 31.5 51.0062H18C14.6875 51.0062 12 48.3188 12 45.0063V30.0062C12 26.6937 14.6875 24.0063 18 24.0063H39C40.3125 24.0063 41.525 24.425 42.5125 25.1437V25.1375ZM45.3312 46.5438C44.5375 45.9625 43.8125 45.1562 43.1812 44.2188C41.7187 42.025 40.8 39.1125 40.8 36.7313C40.8 32.2687 44.025 30 48 30C51.975 30 55.2 32.2687 55.2 36.7313C55.2 39.1125 54.2812 42.025 52.8188 44.2188C52.1938 45.1562 51.4688 45.9688 50.6688 46.5438C51.7125 47.0438 52.725 47.4125 53.8 47.775C54.1438 47.8875 54.4937 48.0062 54.8562 48.125C55.3125 48.275 55.7875 48.4313 56.2875 48.6C58.5687 49.3688 59.9937 51.5687 59.9937 53.9688V57.0062C59.9937 58.6625 58.65 60.0063 56.9938 60.0063H38.9938C37.3375 60.0063 35.9938 58.6625 35.9938 57.0062V53.9688C35.9938 51.5625 37.425 49.3688 39.7 48.6C40.2 48.4313 40.675 48.275 41.1312 48.125C41.4937 48.0062 41.8438 47.8938 42.1875 47.775C43.2625 47.4125 44.275 47.0438 45.3188 46.5438H45.3312ZM48.9062 44.1187L48 44.775L47.0938 44.1187C46.3312 43.5625 45.475 42.4625 44.8063 40.9625C44.1438 39.4875 43.8 37.9375 43.8 36.7313C43.8 35.2812 44.2938 34.4625 44.8688 33.9625C45.5063 33.4125 46.5563 33 48 33C49.4438 33 50.4937 33.4125 51.1312 33.9625C51.7062 34.4625 52.2 35.2812 52.2 36.7313C52.2 37.9375 51.8563 39.4875 51.1938 40.9625C50.525 42.4625 49.6688 43.5625 48.9062 44.1187ZM55.3312 51.4375C54.85 51.275 54.3937 51.125 53.9313 50.975L53.8562 50.95C52.4125 50.4812 50.9313 49.9938 49.375 49.25L48 48.5938L46.625 49.25C45.0687 49.9938 43.5875 50.475 42.1437 50.95L42.0687 50.975C41.6062 51.125 41.15 51.275 40.6688 51.4375C39.725 51.7563 39 52.7188 39 53.9688V57.0062H57V53.9688C57 52.725 56.2687 51.7563 55.3312 51.4375Z" fill="#33CC99"/>
</g>
<defs>
<clipPath id="clip0_150_686">
<rect width="60" height="60" fill="white"/>
</clipPath>
</defs>
</svg>
