<svg width="259" height="259" viewBox="0 0 259 259" fill="none" xmlns="http://www.w3.org/2000/svg">
<g clip-path="url(#clip0_149_579)">
<path d="M241.282 166.81C230.292 146.446 215.331 125.493 196.4 103.99L151.298 58.6297C130.309 40.6916 109.834 26.5764 89.9479 16.3575C68.775 5.44025 50.2856 0 34.4059 0C23.4886 0 15.0342 3.01419 9.04258 9.04258C3.01419 15.0342 0 23.5254 0 34.4059C0 50.4693 5.55053 69.1426 16.6148 90.4993C27.0542 110.386 41.243 130.86 59.2179 151.886L81.1626 175.742C105.533 200.113 130.162 219.779 155.047 234.666C181.844 250.876 204.928 258.963 224.337 258.963C235.254 258.963 243.745 255.912 249.847 249.81C255.949 243.709 259 235.217 259 224.3C259 207.943 253.082 188.755 241.282 166.773V166.81ZM241.429 233.968C235.989 239.408 228.27 242.165 218.308 242.165C201.289 242.165 181.072 235.181 157.657 221.212C135.675 208.384 113.914 191.291 92.4475 169.934C81.0891 159.091 67.6723 143.211 67.6723 143.211C33.5972 102.777 16.6148 68.4442 16.6148 40.177C16.6148 30.2154 19.3349 22.5329 24.7752 17.0559C30.2154 11.6157 37.9347 8.85879 47.8595 8.85879C75.9062 8.85879 110.055 25.8779 150.269 59.953C150.269 59.953 189.306 97.6304 196.4 106.085C231.872 147.328 249.59 182.212 249.59 210.773C249.59 220.734 246.87 228.417 241.393 233.894L241.429 233.968Z" fill="#33CC99"/>
</g>
<defs>
<clipPath id="clip0_149_579">
<rect width="259" height="259" fill="white"/>
</clipPath>
</defs>
</svg>
