<svg width="475" height="411" viewBox="0 0 475 411" fill="none" xmlns="http://www.w3.org/2000/svg">
<path d="M475 34.0815C475 14.9682 420.69 0 351.37 0C282.05 0 227.74 14.9682 227.74 34.0815V82.991C227.74 83.051 227.77 83.1011 227.77 83.1612C227.77 83.2813 227.74 83.3914 227.74 83.5116C227.74 98.3697 258.41 116.121 300.23 124.742L298.99 163.729C298.99 163.729 299 163.779 299 163.809C299 163.859 298.99 163.899 298.99 163.949C298.99 168.445 306.98 171.819 318.35 173.962L301.82 179.939C295.92 171.499 289.46 163.879 282.61 157.411C268.3 143.905 249.84 136.466 230.61 136.466C223.13 136.466 215.75 137.617 208.7 139.88L42.65 193.886C40.91 194.326 39.19 194.827 37.53 195.408C37.44 195.438 37.36 195.468 37.28 195.498C35.83 195.958 34.42 196.449 33.1 196.99C32.88 197.08 32.72 197.25 32.59 197.43C28.66 199.242 25.01 201.445 21.77 204.048C-3.57 224.363 -7.08 266.354 12.83 311.028C15.91 317.927 22.84 322.382 30.49 322.382C32.88 322.382 35.22 321.942 37.45 321.081L38.37 320.72C39.49 324.435 40.73 328.139 42.15 331.814C60.16 378.42 98.61 410.96 135.65 410.96C143.89 410.96 151.81 409.338 159.22 406.174C163.14 405.123 169.58 403.05 177.37 397.984C178.64 397.153 179.88 396.292 181.09 395.401L239.9 368.859C241.77 369.83 244.19 370.361 247.06 370.361C251.7 370.361 257.16 369.019 262.41 366.586C262.78 366.416 263.14 366.226 263.51 366.045C263.56 366.035 263.61 366.035 263.65 366.015L292 352.749C316.24 341.435 332.47 317.246 334.35 289.622C334.83 282.604 334.72 275.255 334.05 267.726L369.89 252.387C381.58 247.401 389.88 237.158 391.55 225.675C392.89 216.433 391.54 205.981 387.73 196.239C384.58 188.209 379.87 180.98 374.25 175.403C390.73 173.551 403.76 169.646 403.76 163.899C403.76 163.859 403.75 163.819 403.75 163.779C403.75 163.759 403.76 163.739 403.76 163.719V124.451C444.95 115.741 475.01 98.1794 475.01 83.4715C475.01 83.3514 474.98 83.2313 474.98 83.1111C474.98 83.061 475.01 83.011 475.01 82.9509V34.0414L475 34.0815ZM36.62 318.998C34.65 319.759 32.59 320.139 30.47 320.139C23.71 320.139 17.58 316.205 14.87 310.117C-4.61 266.404 -1.36 225.464 23.16 205.82C26.84 202.877 31.04 200.424 35.65 198.532L41.55 196.609L41.76 196.539C46.82 195.288 52.28 194.657 57.98 194.657C64.7 194.657 71.68 195.538 78.78 197.21C77.41 197.741 76.24 198.281 75.42 198.812C75.38 198.832 75.35 198.862 75.31 198.882L71.19 200.234C70.9 200.324 70.66 200.544 70.53 200.824C70.45 200.984 70.43 201.165 70.43 201.345C58.18 207.863 48.27 218.656 41.47 233.033C30.18 256.903 28.94 288.07 37.68 318.578L36.61 318.988L36.62 318.998ZM135.64 408.737C99.51 408.737 61.93 376.778 44.25 331.033C31.13 297.071 30.86 260.797 43.53 234.015C51.73 216.694 64.52 204.749 80.54 199.493C81.63 199.132 82.75 198.842 83.86 198.552C92.02 200.884 100.3 204.218 108.49 208.464C105.95 208.143 103.41 207.963 100.87 207.963C94.58 207.963 88.42 208.964 82.58 210.937C66.94 216.203 54.53 227.827 46.71 244.537C35.45 268.577 35.53 300.526 46.93 330.011C62.81 371.101 96.25 398.705 130.15 398.705C138.24 398.705 146.03 397.073 153.3 393.849C189.79 377.669 203.35 326.167 184.18 276.596C182.65 272.632 180.92 268.777 179.05 265.062C180.03 265.233 181.01 265.353 181.99 265.353C183.4 265.353 184.77 265.163 186.1 264.812C187.54 267.896 188.9 271.05 190.15 274.284C211.47 329.411 198 386.26 159.48 403.691C152.03 407.065 144.01 408.777 135.65 408.777L135.64 408.737ZM132.45 223.662C143.36 231.932 153.68 241.744 162.85 252.767C164.11 254.289 165.35 255.821 166.55 257.353C166.95 257.864 167.39 258.344 167.82 258.815C171.7 265.072 175.09 271.831 177.86 279.009C195.43 324.435 183.18 373.164 150.55 387.632C144.14 390.465 137.28 391.907 130.13 391.907C99.49 391.907 67.85 365.435 53.21 327.538C42.47 299.745 42.32 269.778 52.81 247.381C59.83 232.393 70.86 222 84.71 217.324C89.87 215.592 95.3 214.711 100.85 214.711C111.51 214.711 122.29 217.905 132.44 223.662H132.45ZM100.86 212.448C95.06 212.448 89.39 213.37 84 215.182C69.55 220.058 58.06 230.851 50.77 246.42C40.02 269.368 40.15 299.995 51.11 328.349C66.08 367.097 98.58 394.159 130.14 394.159C137.6 394.159 144.78 392.658 151.47 389.684C185.19 374.736 197.97 324.715 179.97 278.188C177.88 272.772 175.43 267.596 172.7 262.69C173.8 263.33 174.94 263.861 176.11 264.271C178.31 268.467 180.32 272.842 182.07 277.377C200.81 325.816 187.77 376.057 152.38 391.747C145.4 394.84 137.91 396.412 130.14 396.412C97.16 396.412 64.56 369.389 49.02 329.16C37.85 300.245 37.74 268.957 48.74 245.459C56.29 229.319 68.24 218.115 83.29 213.039C88.9 211.147 94.82 210.186 100.86 210.186C105.46 210.186 110.08 210.756 114.67 211.818C117.16 213.249 119.64 214.771 122.1 216.363C115.11 213.81 107.97 212.428 100.87 212.428L100.86 212.448ZM176.12 396.132C174.95 396.893 173.82 397.574 172.71 398.204C202.66 374.756 211.54 323.373 192.23 273.433C190.99 270.239 189.65 267.115 188.23 264.051L202 258.585C203.44 261.668 204.8 264.822 206.05 268.056C225.81 319.138 213.51 371.802 176.13 396.132H176.12ZM187.81 389.924C217.78 362.621 226.33 314.242 208.14 267.235C206.89 264.001 205.53 260.837 204.09 257.754L238.96 243.907C240.45 243.326 242.02 243.036 243.63 243.036C249.64 243.036 255.42 247.181 258.01 253.348C268.36 277.998 282.18 321.461 268.29 353.59L187.8 389.924H187.81ZM262.43 364.093C262.1 364.253 261.78 364.423 261.45 364.573C256.48 366.866 251.37 368.138 247.04 368.138C245.41 368.138 243.97 367.948 242.73 367.607L266.82 356.734C265.54 359.277 264.09 361.74 262.42 364.093H262.43ZM332.1 289.512C330.27 316.315 314.54 339.783 291.04 350.747L266.33 362.301C286.91 328.91 271.45 279.51 260.1 252.477C257.16 245.479 250.55 240.783 243.64 240.783C241.75 240.783 239.91 241.123 238.14 241.814L186.85 262.179C185.31 262.77 183.67 263.08 181.98 263.08C176.91 263.08 171.81 260.427 168.33 255.981C167.11 254.43 165.86 252.878 164.58 251.346C134.82 215.552 92.98 192.434 58 192.434C56.73 192.434 55.47 192.464 54.22 192.524L209.39 142.053C216.22 139.86 223.36 138.749 230.61 138.749C249.25 138.749 267.17 145.968 281.06 159.084C296.97 174.102 310.82 195.388 320.07 219.026C329.32 242.655 333.59 267.696 332.1 289.542V289.512ZM385.62 197.12C389.29 206.491 390.6 216.543 389.31 225.404C387.76 236.117 379.97 245.679 369 250.365L333.81 265.423C332.2 249.914 328.26 233.734 322.17 218.165C317.08 205.15 310.59 192.845 303.14 181.861L337.36 169.476C341.34 168.034 345.47 167.304 349.63 167.304C356.97 167.304 363.9 169.636 369.15 173.882C376.1 179.488 381.95 187.748 385.62 197.12ZM330.92 166.172C330.92 164.59 338.14 161.516 351.37 161.516C364.6 161.516 371.82 164.6 371.82 166.172C371.82 166.993 369.88 168.205 366.19 169.196C361.31 166.503 355.59 165.051 349.64 165.051C345.21 165.051 340.83 165.832 336.6 167.364L333.89 168.345C331.94 167.574 330.93 166.773 330.93 166.182L330.92 166.172ZM372.08 173.441C371.58 173 371.08 172.54 370.56 172.119C369.97 171.649 369.36 171.208 368.73 170.778C371.98 169.646 374.06 168.104 374.06 166.172C374.06 161.627 362.64 159.254 351.36 159.254C340.08 159.254 328.66 161.627 328.66 166.172C328.66 167.404 329.52 168.475 330.98 169.386L322.57 172.43C309.3 170.377 301.24 167.053 301.24 163.949C301.24 158.993 321.83 153.467 351.37 153.467C380.91 153.467 401.5 158.993 401.5 163.949C401.5 167.634 390.09 171.639 372.09 173.441H372.08ZM351.36 151.214C330.45 151.214 308.47 154.248 301.35 159.935L302.68 118.074C302.68 114.339 315.47 110.344 351.35 110.344C380.89 110.344 401.48 115.871 401.48 120.827V160.035C394.51 154.278 372.39 151.214 351.35 151.214H351.36ZM403.74 122.209V120.827C403.74 112.557 376.75 108.091 351.36 108.091C300.43 108.091 300.43 115.611 300.43 118.044L300.29 122.479C258.79 113.828 229.98 96.217 229.98 83.5216C229.98 66.2706 285.56 51.6929 351.35 51.6929C417.14 51.6929 472.72 66.2706 472.72 83.5216C472.72 96.0869 444.53 113.468 403.73 122.219L403.74 122.209ZM351.36 49.4301C290.26 49.4301 240.86 61.0643 229.98 76.9035V34.0815C229.98 16.8305 285.56 2.25274 351.36 2.25274C417.16 2.25274 472.73 16.8305 472.73 34.0815V76.9035C461.85 61.0643 412.45 49.4301 351.36 49.4301Z" fill="#33CC99"/>
<path d="M78.92 270.349C72.86 283.635 72.98 301.236 79.23 317.416C87.9 339.853 106.85 355.533 125.3 355.533C129.52 355.533 133.6 354.722 137.42 353.12C157.68 344.629 165.53 315.394 154.92 287.97C146.25 265.543 127.29 249.874 108.83 249.874C105.16 249.874 101.59 250.485 98.21 251.706C89.78 254.74 83.11 261.188 78.93 270.359L78.92 270.349ZM108.82 252.127C126.37 252.127 144.47 267.195 152.81 288.781C162.98 315.083 155.68 343.007 136.54 351.037C133 352.519 129.21 353.27 125.29 353.27C107.75 353.27 89.67 338.191 81.32 316.595C75.28 300.966 75.15 284.026 80.96 271.28C84.88 262.68 91.1 256.642 98.95 253.819C102.09 252.687 105.4 252.117 108.81 252.117L108.82 252.127Z" fill="#33CC99"/>
<path d="M121.34 326.868C123.25 326.868 125.1 326.517 126.84 325.816C136.42 321.962 140.19 308.405 135.24 295.62C131.25 285.287 122.48 278.068 113.92 278.068C112.13 278.068 110.38 278.379 108.74 278.999C104.83 280.461 101.76 283.505 99.85 287.77C97.07 293.978 97.14 301.837 100.03 309.316C104.02 319.649 112.79 326.868 121.35 326.868H121.34ZM101.9 288.691C103.56 284.977 106.2 282.354 109.53 281.102C110.92 280.581 112.4 280.311 113.92 280.311C121.57 280.311 129.47 286.939 133.14 296.421C137.64 308.065 134.44 320.31 126 323.714C124.53 324.305 122.96 324.605 121.34 324.605C113.69 324.605 105.79 317.977 102.12 308.495C99.48 301.677 99.4 294.268 101.9 288.691Z" fill="#33CC99"/>
<path d="M364.58 192.244C363.9 192.244 363.25 192.364 362.64 192.604C361.21 193.155 360.07 194.316 359.35 195.958C358.07 198.882 358.23 203.007 359.78 206.982C361.85 212.258 365.89 215.943 369.61 215.943C370.31 215.943 370.99 215.813 371.62 215.562C375.7 213.93 376.92 207.623 374.42 201.215C372.35 195.938 368.31 192.254 364.58 192.254V192.244ZM370.78 213.46C367.97 214.581 363.84 211.157 361.88 206.151C360.56 202.777 360.38 199.212 361.41 196.859C361.74 196.109 362.36 195.127 363.45 194.707C363.8 194.567 364.18 194.497 364.58 194.497C367.36 194.497 370.61 197.66 372.32 202.026C374.3 207.092 373.6 212.318 370.78 213.45V213.46Z" fill="#33CC99"/>
<path d="M368.28 200.995L367.61 201.255L367.17 200.133C366.75 199.062 365.94 198.331 365.24 198.331C365.12 198.331 365.01 198.351 364.9 198.391C364.14 198.682 363.93 199.953 364.42 201.215L364.86 202.336L364.19 202.596C363.43 202.897 363.21 204.168 363.71 205.42C364.13 206.501 364.94 207.222 365.64 207.222C365.76 207.222 365.87 207.202 365.98 207.162L366.65 206.892L367.09 208.013C367.51 209.084 368.32 209.815 369.01 209.815C369.13 209.815 369.24 209.795 369.35 209.755C370.1 209.455 370.32 208.183 369.83 206.932L369.39 205.81L370.06 205.54C370.81 205.24 371.03 203.978 370.54 202.717C370.12 201.645 369.31 200.914 368.62 200.914C368.5 200.914 368.39 200.934 368.28 200.974V200.995ZM367.39 204.779C367.15 204.699 366.9 204.649 366.65 204.649C366.4 204.649 366.13 204.689 365.88 204.779C365.85 204.729 365.82 204.669 365.8 204.599C365.77 204.529 365.75 204.469 365.74 204.409C366.24 204.198 366.62 203.828 366.86 203.377C367.1 203.468 367.36 203.508 367.61 203.508C367.86 203.508 368.12 203.468 368.36 203.377C368.39 203.427 368.41 203.488 368.44 203.548C368.47 203.618 368.49 203.678 368.5 203.738C368.01 203.948 367.62 204.319 367.39 204.769V204.779Z" fill="#33CC99"/>
</svg>
