<svg width="499" height="499" viewBox="0 0 499 499" fill="none" xmlns="http://www.w3.org/2000/svg">
<path d="M460.238 316.327C441.191 281.6 415.364 244.555 383.875 207.701C370.093 191.569 355.225 175.475 339.361 159.626C323.536 143.807 307.459 128.983 291.343 115.238C254.466 83.7765 217.398 57.9681 182.641 38.9217C112.14 0.285608 51.182 -10.5074 20.741 15.7676C19.815 16.5631 18.9197 17.3968 18.0473 18.2612C17.1826 19.1256 16.3485 20.0282 15.5527 20.9537C-10.7484 51.3592 0.0566979 112.27 38.7316 182.711C57.7936 217.431 83.6202 254.468 115.11 291.314C128.868 307.408 143.706 323.471 159.539 339.29C175.402 355.139 191.511 369.994 207.657 383.77C244.541 415.231 281.624 441.032 316.374 460.063C388.971 499.816 451.43 510.043 480.845 480.655C510.253 451.266 500.022 388.864 460.23 316.335L460.238 316.327Z" stroke="#33CC99" stroke-miterlimit="10"/>
</svg>
