<svg width="78" height="77" viewBox="0 0 78 77" fill="none" xmlns="http://www.w3.org/2000/svg">
<path d="M38.2617 76.4919C59.393 76.4919 76.5234 59.3686 76.5234 38.2459C76.5234 17.1233 59.393 0 38.2617 0C17.1303 0 0 17.1233 0 38.2459C0 59.3686 17.1303 76.4919 38.2617 76.4919Z" fill="#151515" stroke="#33CC99" stroke-dasharray="10 10"/>
<path fill-rule="evenodd" clip-rule="evenodd" d="M54.25 23.7368H22.75V27.2105H27.125C27.6062 27.2105 28 27.5977 28 28.0789V33.2895C28 33.7671 27.6099 34.1579 27.125 34.1579H22.75V39.3684H27.125C27.6062 39.3684 28 39.7556 28 40.2368V45.4474C28 45.925 27.6099 46.3158 27.125 46.3158H22.75V49.7895H54.25V23.7368ZM31.5 31.5526C31.5 31.075 31.8901 30.6842 32.375 30.6842C32.8599 30.6842 33.25 31.0714 33.25 31.5526V41.9737C33.25 42.4549 32.8599 42.8421 32.375 42.8421C31.8901 42.8421 31.5 42.4513 31.5 41.9737V31.5526ZM22.75 44.5789H26.25V41.1053H22.75V44.5789ZM22.75 32.4211H26.25V28.9474H22.75V32.4211ZM48.125 55C47.6438 55 47.25 54.6128 47.25 54.1316C47.25 53.6503 47.6438 53.2632 48.125 53.2632H55.125C55.6063 53.2632 56 53.6539 56 54.1316C56 54.6092 55.6063 55 55.125 55H48.125ZM21.875 55C21.3938 55 21 54.6128 21 54.1316C21 53.6503 21.3938 53.2632 21.875 53.2632H28.875C29.3563 53.2632 29.75 53.6539 29.75 54.1316C29.75 54.6092 29.3599 55 28.875 55H21.875ZM49.875 35.8984C50.3562 35.8984 50.75 36.2891 50.75 36.7668C50.75 37.2444 50.3562 37.6352 49.875 37.6352H48.938C48.7448 38.9632 48.1214 40.1536 47.2062 41.0582L47.1953 41.0655C46.087 42.1618 44.5594 42.8421 42.875 42.8421C41.1906 42.8421 39.6521 42.1618 38.5438 41.0618C37.4354 39.9618 36.75 38.4421 36.75 36.7632C36.75 35.0842 37.4391 33.5681 38.5438 32.4681L38.562 32.45C39.6703 31.3609 41.1943 30.6842 42.875 30.6842C44.5557 30.6842 46.0979 31.3681 47.2062 32.4681C48.1177 33.3727 48.7448 34.5668 48.938 35.8984H49.875ZM47.1625 37.6352H44.625C44.1438 37.6352 43.75 37.2444 43.75 36.7668C43.75 36.2891 44.1401 35.8984 44.625 35.8984H47.1625C46.9875 35.048 46.5646 34.2845 45.9667 33.6947C45.1755 32.9095 44.0818 32.4211 42.8714 32.4211C41.6609 32.4211 40.5672 32.9095 39.7797 33.6911C38.9885 34.4763 38.5 35.5618 38.5 36.7632C38.5 37.9645 38.9885 39.0464 39.7797 39.8316C40.5708 40.6168 41.6682 41.1016 42.8714 41.1016C44.0745 41.1016 45.1755 40.6168 45.9667 39.8316C46.5646 39.2418 46.9875 38.4783 47.1625 37.628V37.6352ZM21.875 22H55.125C55.6063 22 56 22.3908 56 22.8684V50.6579C56 51.1355 55.6063 51.5263 55.125 51.5263H21.875C21.3938 51.5263 21 51.1355 21 50.6579V22.8684C21 22.3908 21.3938 22 21.875 22Z" fill="#33CC99"/>
</svg>
