<svg width="216" height="234" viewBox="0 0 216 234" fill="none" xmlns="http://www.w3.org/2000/svg">
<path d="M214.048 84.3174L200.891 73.5373V34.8146H200.937V26.1087C200.937 21.1502 196.911 17.1165 191.963 17.1165H132.031L113.575 1.99347C112.007 0.708218 110.027 0 108 0C105.973 0 103.993 0.708218 102.424 1.99347L83.9679 17.1165H24.1045C19.372 17.1165 15.4835 20.8071 15.1549 25.4665H15.0862V89.9657L16.3677 90.7537V26.7508H16.4135V26.1087C16.4135 21.8584 19.8635 18.4008 24.1045 18.4008H191.963C196.204 18.4008 199.655 21.8584 199.655 26.1087V33.5303H199.609V74.1464L200.891 75.1959L213.236 85.3118C213.46 85.4953 213.659 85.699 213.834 85.9191C214.946 86.7402 215.697 87.9658 215.926 89.3263C216.236 87.4659 215.539 85.5393 214.048 84.3174ZM85.9927 17.1165L103.236 2.98791C104.577 1.88889 106.268 1.28433 108 1.28433C109.732 1.28433 111.423 1.88889 112.764 2.98791L130.007 17.1165H85.9927Z" fill="#33CC99"/>
<path d="M215.926 89.3263C215.697 87.9658 214.947 86.7402 213.835 85.9201C213.658 85.788 213.473 85.6687 213.279 85.5595C212.487 85.1155 211.589 84.8816 210.682 84.8816C209.699 84.8816 208.737 85.1531 207.899 85.6687L200.891 89.9795V75.1959L199.609 74.1464V90.7675L126.582 135.69C122.645 138.112 119.46 141.38 117.2 145.19L113.575 142.22C112.007 140.934 110.027 140.226 108 140.226C105.973 140.226 103.993 140.934 102.424 142.22L98.7996 145.19C96.5396 141.38 93.355 138.112 89.418 135.69L16.3677 90.7537L15.0862 89.9657L8.10103 85.6687C7.26347 85.1531 6.30141 84.8816 5.3183 84.8816C4.41117 84.8816 3.51319 85.1155 2.7214 85.5595C2.52734 85.6687 2.34152 85.7889 2.16485 85.9201C2.33969 85.6999 2.54015 85.4953 2.7635 85.3118L15.0862 75.2151V73.5556L1.95249 84.3174C0.461347 85.5393 -0.236166 87.4658 0.074145 89.3263C0.024715 89.6162 0 89.9125 0 90.2116V228.67C0 228.861 0.0100691 229.051 0.0311226 229.238C0.0375302 229.295 0.0439378 229.351 0.0521761 229.407C0.056753 229.444 0.0622452 229.482 0.0686528 229.519C0.0778065 229.578 0.088791 229.637 0.0997754 229.696C0.105268 229.723 0.11076 229.751 0.116252 229.777C0.125406 229.821 0.135475 229.865 0.145544 229.908C0.158359 229.962 0.17209 230.014 0.186736 230.066C0.187651 230.073 0.189482 230.079 0.192228 230.086C0.22152 230.194 0.254473 230.302 0.292003 230.409C0.292003 230.412 0.292003 230.414 0.293834 230.417C0.299326 230.431 0.303903 230.446 0.309395 230.461C0.321295 230.494 0.333195 230.527 0.34601 230.56C0.347841 230.565 0.350587 230.572 0.353333 230.578C0.373471 230.63 0.394525 230.682 0.415578 230.734C0.418324 230.741 0.42107 230.747 0.423817 230.753C0.491554 230.914 0.566614 231.07 0.648998 231.221C0.684697 231.286 0.721312 231.351 0.759758 231.415C0.809188 231.497 0.861364 231.579 0.915371 231.659C0.915371 231.659 0.915981 231.659 0.917201 231.661C0.950155 231.709 0.984023 231.757 1.01789 231.804C1.05176 231.852 1.08746 231.898 1.12316 231.944C1.1552 231.985 1.18815 232.026 1.2211 232.066C1.23758 232.087 1.25497 232.107 1.27237 232.128C1.32088 232.184 1.37031 232.24 1.42157 232.295C1.44445 232.319 1.46734 232.344 1.49114 232.369C1.58451 232.465 1.68154 232.559 1.78223 232.649C1.95798 232.805 2.1438 232.95 2.33786 233.083C2.37264 233.106 2.40742 233.129 2.44312 233.152C2.61979 233.265 2.80286 233.369 2.99143 233.461C3.02988 233.48 3.06741 233.498 3.10585 233.516C3.1443 233.533 3.18274 233.55 3.22119 233.567C3.28343 233.594 3.34568 233.619 3.40884 233.643C3.472 233.668 3.53516 233.691 3.59924 233.713C3.63036 233.724 3.66057 233.734 3.69169 233.744C3.73929 233.759 3.78689 233.773 3.83449 233.787C3.88117 233.801 3.92877 233.815 3.97637 233.827C3.98003 233.828 3.98461 233.829 3.98919 233.83C4.03953 233.843 4.08988 233.855 4.14114 233.867C4.24824 233.892 4.35716 233.913 4.46609 233.931C4.52468 233.94 4.58235 233.949 4.64093 233.956C4.69311 233.963 4.74528 233.969 4.79746 233.974C4.80112 233.974 4.8057 233.974 4.80936 233.974C4.86611 233.98 4.92195 233.984 4.9787 233.988C5.02264 233.991 5.06566 233.994 5.10868 233.994C5.12974 233.994 5.15079 233.996 5.17184 233.996C5.22127 233.998 5.26979 233.999 5.3183 233.999H210.682C210.73 233.999 210.779 233.999 210.828 233.996C210.847 233.996 210.868 233.995 210.887 233.994H210.891C210.934 233.994 210.977 233.991 211.021 233.988C211.078 233.984 211.134 233.98 211.191 233.974C211.194 233.974 211.199 233.974 211.203 233.974C211.255 233.969 211.307 233.963 211.359 233.956C211.418 233.949 211.475 233.94 211.534 233.931C211.643 233.913 211.752 233.892 211.859 233.867C211.91 233.855 211.96 233.843 212.011 233.83C212.015 233.83 212.02 233.828 212.024 233.827C212.071 233.815 212.119 233.801 212.166 233.787C212.202 233.776 212.24 233.765 212.276 233.753C212.287 233.75 212.297 233.748 212.308 233.744C212.312 233.744 212.317 233.741 212.32 233.74C212.348 233.731 212.373 233.722 212.401 233.713C212.465 233.691 212.528 233.668 212.591 233.643C212.623 233.631 212.654 233.619 212.685 233.606C212.717 233.594 212.748 233.581 212.779 233.567C212.817 233.55 212.856 233.533 212.894 233.516C213.128 233.407 213.353 233.284 213.569 233.145C213.6 233.124 213.631 233.104 213.662 233.083C213.856 232.95 214.042 232.805 214.218 232.649C214.318 232.559 214.415 232.465 214.509 232.369C214.533 232.344 214.556 232.319 214.578 232.295C214.63 232.24 214.679 232.184 214.728 232.128C214.745 232.107 214.762 232.087 214.779 232.066C214.812 232.026 214.845 231.985 214.877 231.944C214.913 231.898 214.948 231.852 214.982 231.804C215.016 231.757 215.05 231.709 215.083 231.661L215.085 231.659C215.116 231.611 215.147 231.563 215.178 231.515C215.24 231.416 215.299 231.316 215.355 231.213C215.382 231.162 215.409 231.11 215.435 231.058C215.461 231.006 215.486 230.953 215.511 230.9C215.533 230.852 215.555 230.803 215.576 230.753C215.579 230.747 215.582 230.741 215.584 230.734C215.605 230.682 215.627 230.63 215.647 230.578C215.649 230.572 215.652 230.565 215.654 230.56C215.667 230.527 215.679 230.494 215.691 230.461C215.696 230.446 215.701 230.431 215.706 230.417C215.706 230.414 215.708 230.412 215.708 230.409C215.746 230.302 215.778 230.194 215.808 230.086C215.811 230.079 215.812 230.073 215.813 230.066C215.828 230.014 215.842 229.962 215.854 229.908C215.865 229.865 215.875 229.821 215.884 229.777C215.889 229.751 215.895 229.723 215.9 229.696C215.911 229.637 215.922 229.578 215.931 229.519C215.938 229.482 215.943 229.444 215.948 229.407C215.951 229.379 215.955 229.351 215.959 229.322C215.962 229.295 215.966 229.266 215.969 229.238C215.973 229.191 215.978 229.144 215.982 229.098C215.995 228.956 216 228.813 216 228.67V90.2116C216 89.9125 215.975 89.6162 215.926 89.3263ZM1.28152 90.2116C1.28152 89.9116 1.31447 89.6153 1.37946 89.329C1.62661 88.2199 2.33511 87.2484 3.34751 86.6806C3.94799 86.3439 4.62994 86.1659 5.3183 86.1659C6.06433 86.1659 6.7948 86.3723 7.43006 86.7631L88.7479 136.784C92.5604 139.13 95.6333 142.309 97.7945 146.014L1.95249 224.544C1.70717 224.745 1.4829 224.966 1.28152 225.201V90.2116ZM214.717 228.76L214.714 228.845C214.712 228.902 214.708 228.958 214.703 229.014V229.019C214.7 229.046 214.697 229.074 214.695 229.101C214.692 229.13 214.688 229.158 214.685 229.186C214.682 229.215 214.678 229.243 214.673 229.271C214.667 229.315 214.66 229.358 214.652 229.401C214.647 229.425 214.643 229.45 214.638 229.475C214.637 229.476 214.637 229.478 214.636 229.48C214.628 229.523 214.618 229.565 214.608 229.608V229.61C214.599 229.647 214.589 229.685 214.579 229.721C214.552 229.825 214.52 229.928 214.483 230.03C214.48 230.04 214.476 230.051 214.471 230.061C214.459 230.095 214.447 230.129 214.433 230.162C214.432 230.164 214.431 230.166 214.43 230.169C214.428 230.176 214.426 230.183 214.423 230.188C214.41 230.221 214.396 230.253 214.382 230.286C214.372 230.31 214.361 230.335 214.349 230.359C214.348 230.364 214.346 230.367 214.343 230.37C214.325 230.41 214.306 230.451 214.286 230.49C214.267 230.528 214.248 230.564 214.228 230.6C214.207 230.64 214.186 230.678 214.163 230.716C214.15 230.739 214.136 230.762 214.122 230.784C214.109 230.806 214.095 230.829 214.08 230.85C214.079 230.854 214.076 230.858 214.073 230.863C214.068 230.871 214.063 230.878 214.058 230.885C214.034 230.923 214.008 230.961 213.982 230.997C213.98 231 213.978 231.003 213.976 231.006C213.948 231.047 213.918 231.087 213.887 231.127C213.864 231.157 213.841 231.188 213.816 231.218C213.791 231.248 213.767 231.277 213.742 231.307C213.699 231.358 213.654 231.407 213.606 231.456C213.583 231.481 213.56 231.505 213.536 231.529C213.512 231.552 213.487 231.576 213.464 231.599C213.421 231.64 213.378 231.679 213.334 231.718C213.291 231.757 213.246 231.794 213.2 231.83C213.109 231.905 213.014 231.973 212.916 232.038L212.831 232.093C212.803 232.11 212.774 232.128 212.746 232.145C212.715 232.164 212.684 232.183 212.652 232.2C212.626 232.216 212.598 232.23 212.571 232.244C212.542 232.261 212.512 232.276 212.481 232.29C212.436 232.314 212.39 232.336 212.343 232.356C212.296 232.378 212.25 232.398 212.202 232.417C212.107 232.456 212.011 232.491 211.913 232.522C211.864 232.539 211.815 232.553 211.765 232.566C211.725 232.578 211.685 232.588 211.645 232.598C211.627 232.603 211.609 232.606 211.592 232.611C211.58 232.614 211.568 232.617 211.556 232.618C211.52 232.628 211.484 232.635 211.449 232.641C211.403 232.651 211.356 232.659 211.31 232.666C211.274 232.672 211.238 232.677 211.203 232.682C211.187 232.684 211.171 232.685 211.156 232.687C211.105 232.694 211.053 232.699 211.002 232.703C210.999 232.703 210.997 232.703 210.995 232.703C210.958 232.706 210.922 232.708 210.885 232.71C210.864 232.712 210.844 232.713 210.824 232.713C210.777 232.715 210.729 232.716 210.683 232.716H5.3183C5.27162 232.716 5.22402 232.716 5.17734 232.713C5.1572 232.713 5.13614 232.712 5.11601 232.71C5.07939 232.708 5.04278 232.706 5.00616 232.703C5.00342 232.703 5.00159 232.703 4.99884 232.703C4.94758 232.699 4.89632 232.694 4.84506 232.687C4.79288 232.682 4.74162 232.674 4.69036 232.666C4.57777 232.649 4.46792 232.626 4.35899 232.599C4.3178 232.589 4.2757 232.578 4.2345 232.566C4.18507 232.553 4.13564 232.539 4.08713 232.522C4.04411 232.508 4.002 232.494 3.95989 232.479C3.92053 232.465 3.88117 232.451 3.84181 232.434C3.79421 232.417 3.74753 232.397 3.70176 232.376C3.58093 232.325 3.46285 232.265 3.34751 232.201C3.23217 232.137 3.1205 232.066 3.0134 231.99C2.9777 231.964 2.942 231.939 2.90722 231.913C2.83307 231.859 2.76167 231.801 2.6921 231.74C2.65915 231.714 2.62711 231.685 2.59599 231.656C2.59325 231.652 2.5905 231.65 2.58775 231.648C2.55571 231.619 2.52459 231.59 2.49438 231.559C2.46235 231.528 2.43031 231.496 2.4001 231.463C2.36898 231.43 2.33877 231.397 2.30856 231.364C2.30765 231.363 2.30673 231.361 2.30399 231.36C2.22893 231.274 2.15661 231.186 2.08796 231.095C2.06599 231.064 2.04311 231.033 2.02114 231.002C1.99368 230.963 1.96713 230.925 1.94242 230.885C1.93692 230.878 1.93143 230.871 1.92685 230.863C1.90672 230.832 1.88749 230.801 1.86919 230.769C1.84905 230.739 1.83074 230.707 1.81335 230.674C1.7987 230.651 1.78497 230.626 1.77216 230.601C1.7511 230.563 1.73005 230.523 1.71083 230.484C1.6916 230.447 1.67421 230.409 1.65774 230.372C1.65499 230.368 1.65224 230.364 1.65041 230.358C1.64126 230.338 1.63211 230.318 1.62295 230.297C1.60556 230.258 1.58908 230.219 1.57352 230.178C1.55613 230.136 1.53965 230.093 1.52501 230.05C1.52135 230.043 1.51952 230.036 1.51677 230.03C1.51494 230.026 1.51402 230.021 1.51311 230.018C1.50487 229.997 1.49846 229.976 1.49114 229.955C1.46551 229.878 1.44171 229.799 1.42066 229.721C1.41059 229.685 1.40143 229.647 1.39228 229.61V229.608C1.38312 229.569 1.37397 229.531 1.36573 229.491L1.34926 229.406C1.34102 229.361 1.33278 229.317 1.32729 229.271C1.3218 229.243 1.31813 229.215 1.31539 229.186C1.31173 229.158 1.30806 229.13 1.30532 229.101C1.30257 229.074 1.29983 229.046 1.29708 229.019V229.014C1.29159 228.958 1.28793 228.902 1.2861 228.845L1.28335 228.76C1.28243 228.745 1.28243 228.73 1.28243 228.715C1.27053 227.509 1.79779 226.329 2.7635 225.537L103.236 143.213C104.577 142.115 106.268 141.511 108 141.511C109.732 141.511 111.423 142.115 112.764 143.213L213.236 225.537C214.202 226.329 214.729 227.509 214.718 228.715C214.718 228.73 214.718 228.745 214.717 228.76ZM214.718 225.201C214.517 224.966 214.293 224.745 214.048 224.544L118.205 146.014C120.367 142.309 123.44 139.13 127.252 136.784L199.609 92.2747L208.569 86.7631C209.205 86.3723 209.936 86.1659 210.682 86.1659C211.37 86.1659 212.052 86.3439 212.652 86.6806C213.665 87.2484 214.373 88.2199 214.621 89.329C214.686 89.6162 214.718 89.9116 214.718 90.2116V225.201Z" fill="#33CC99"/>
<path d="M148.341 78.6516C147.956 56.3226 129.583 38.5346 107.303 38.9208C85.0233 39.307 67.2743 57.7207 67.6596 80.0488C68.045 102.378 86.4183 120.166 108.698 119.78C130.978 119.393 148.727 100.98 148.341 78.6516ZM131.731 67.3798L108.705 92.5793C108.729 92.6032 108.731 92.6417 108.708 92.6665L103.448 98.424L103.403 98.3827C103.38 98.4074 103.342 98.4093 103.316 98.3863L97.6179 93.1564C97.5932 93.1334 97.5913 93.0949 97.6142 93.0692L82.5875 79.2791C82.5628 79.2562 82.5609 79.2177 82.5838 79.192L87.8024 73.4822C87.8252 73.4574 87.8637 73.4556 87.8893 73.4785L102.87 87.2273C102.895 87.2503 102.934 87.2484 102.957 87.2236L125.942 62.0682C125.965 62.0434 127.612 60.171 127.637 60.1939L133.336 65.4239C133.36 65.4469 131.754 67.3569 131.731 67.3816V67.3798Z" fill="#33CC99"/>
</svg>
