<svg width="100" height="100" viewBox="0 0 100 100" fill="none" xmlns="http://www.w3.org/2000/svg">
<path d="M13.2752 0C19.4022 0 26.5504 2.10048 34.7198 6.31564C42.3927 10.2753 50.2784 15.711 58.3911 22.637L59.8235 21.1893H76.0772L75.7935 40.1504C83.0977 48.453 88.8702 56.5427 93.1109 64.4053C97.6636 72.8924 99.947 80.3009 99.947 86.6165C99.947 90.8317 98.7698 94.1101 96.4155 96.4661C94.0611 98.822 90.7849 100 86.5725 100C79.084 100 70.1629 96.8777 59.8377 90.6188C50.2359 84.8567 40.7475 77.2779 31.3301 67.8683L21.785 77.803H3.99958L22.8487 58.6574C15.9132 50.5393 10.4386 42.6483 6.41068 34.956C2.14162 26.696 0 19.4862 0 13.2841C0 9.06898 1.163 5.80471 3.47481 3.47715C5.80081 1.16378 9.06288 0 13.2752 0ZM6.41068 15.5123C6.41068 26.4121 12.9774 39.6821 26.0966 55.2938L57.9798 23.1621C42.4637 10.0199 29.2877 3.43457 18.4662 3.43457C14.6368 3.43457 11.6584 4.48481 9.55929 6.59949C7.46021 8.71416 6.41068 11.6804 6.41068 15.5265V15.5123ZM35.67 65.5975C43.967 73.8433 52.3491 80.4286 60.8305 85.396C69.8651 90.7891 77.6657 93.4857 84.2323 93.4857C88.0759 93.4857 91.0402 92.4354 93.1534 90.3208C95.2525 88.2203 96.3162 85.2399 96.3162 81.3937C96.3162 70.3662 89.48 56.8975 75.7935 40.9736V77.7746H57.5968L57.8805 65.5975H35.6842H35.67ZM58.8024 38.9867L44.9599 53.5197H58.0507L58.8024 38.9867Z" fill="#33CC99"/>
</svg>
