<svg width="104" height="52" viewBox="0 0 104 52" fill="none" xmlns="http://www.w3.org/2000/svg">
<path d="M26.8682 0.664093C30.306 0.664093 33.431 1.1589 36.243 2.14799C39.056 3.11199 41.569 4.33599 43.782 5.81999C45.996 7.30499 47.936 8.82799 49.603 10.391C50.097 10.859 50.514 11.263 50.853 11.602C51.191 11.914 51.556 12.279 51.946 12.695C52.311 12.279 52.688 11.888 53.079 11.523C53.47 11.159 53.86 10.781 54.251 10.391C56.829 7.99499 60.032 5.78099 63.86 3.74999C67.715 1.69269 72.103 0.664093 77.024 0.664093C81.816 0.664093 86.178 1.80989 90.11 4.10199C94.043 6.39299 97.181 9.46599 99.524 13.32C101.868 17.148 103.04 21.354 103.04 25.937C103.04 29.401 102.363 32.656 101.009 35.703C99.681 38.75 97.819 41.432 95.423 43.75C93.027 46.068 90.254 47.878 87.103 49.18C83.978 50.482 80.618 51.133 77.024 51.133C73.639 51.133 70.553 50.664 67.767 49.727C65.006 48.789 62.519 47.617 60.306 46.211C58.118 44.779 56.191 43.307 54.524 41.797C53.899 41.25 53.405 40.807 53.04 40.469C52.675 40.13 52.311 39.753 51.946 39.336C51.504 39.831 51.1 40.247 50.735 40.586C50.397 40.898 49.98 41.302 49.485 41.797C47.897 43.203 45.996 44.635 43.782 46.094C41.595 47.526 39.082 48.724 36.243 49.688C33.431 50.651 30.306 51.133 26.8682 51.133C22.1286 51.133 17.7926 50 13.8604 47.734C9.92806 45.443 6.78996 42.396 4.44626 38.594C2.10246 34.792 0.930664 30.573 0.930664 25.937C0.930664 22.5 1.60766 19.258 2.96186 16.211C4.31606 13.164 6.17806 10.482 8.54786 8.16399C10.9437 5.81999 13.7041 3.98399 16.8291 2.65599C19.9801 1.32809 23.3265 0.664093 26.8682 0.664093ZM17.4932 25.937C17.4932 27.578 17.9098 29.062 18.7432 30.391C19.6025 31.719 20.7354 32.773 22.1416 33.555C23.5739 34.336 25.1494 34.727 26.8682 34.727C29.03 34.727 31.009 34.31 32.806 33.477C34.603 32.617 36.373 31.419 38.118 29.883C39.03 29.076 39.772 28.333 40.345 27.656C40.918 26.953 41.373 26.38 41.712 25.937C41.321 25.443 40.696 24.766 39.837 23.906C39.004 23.047 38.431 22.461 38.118 22.148C36.582 20.742 34.863 19.544 32.962 18.555C31.061 17.565 29.03 17.07 26.8682 17.07C25.1494 17.07 23.5739 17.487 22.1416 18.32C20.7354 19.128 19.6025 20.208 18.7432 21.562C17.9098 22.891 17.4932 24.349 17.4932 25.937ZM86.399 25.937C86.399 24.349 85.983 22.891 85.149 21.562C84.316 20.208 83.183 19.128 81.751 18.32C80.345 17.487 78.769 17.07 77.024 17.07C75.566 17.07 74.16 17.305 72.806 17.773C71.478 18.242 70.228 18.867 69.056 19.648C67.884 20.43 66.829 21.263 65.892 22.148C65.423 22.617 64.798 23.255 64.017 24.062C63.261 24.844 62.688 25.469 62.298 25.937C62.741 26.589 63.248 27.227 63.821 27.852C64.394 28.477 65.084 29.154 65.892 29.883C67.506 31.341 69.225 32.513 71.048 33.398C72.871 34.284 74.863 34.727 77.024 34.727C78.769 34.727 80.345 34.336 81.751 33.555C83.183 32.773 84.316 31.719 85.149 30.391C85.983 29.062 86.399 27.578 86.399 25.937Z" fill="white"/>
</svg>
