<svg width="200" height="55" viewBox="0 0 200 55" fill="none" xmlns="http://www.w3.org/2000/svg">
<g clip-path="url(#clip0_181_437)">
<path d="M46.1592 11.527H53.9882V42.3248H46.1592V11.527Z" fill="#33CC99"/>
<path d="M57.8678 11.527H65.6968V42.3248H57.8678V11.527Z" fill="#33CC99"/>
<path d="M93.0012 30.7978C93.0012 31.4772 92.9391 32.1643 92.8382 32.8592H75.9543C76.4664 35.4533 78.1191 36.7967 80.5943 36.7967C82.4254 36.7967 83.954 36.0015 84.7066 34.6736H92.4968C90.8984 39.8387 86.2973 43.0659 80.5943 43.0659C73.5024 43.0659 68.2417 37.9085 68.2417 30.9908C68.2417 24.073 73.4559 18.9542 80.5943 18.9542C87.7327 18.9542 93.0012 24.158 93.0012 30.79V30.7978ZM76.094 28.5433H85.2886C84.598 26.2812 82.9608 25.0613 80.602 25.0613C78.2433 25.0613 76.7302 26.2966 76.1017 28.5433H76.094Z" fill="#33CC99"/>
<path d="M117.59 19.6954L108.45 42.3171H101.358L92.0934 19.6954H100.675L104.974 33.0986L109.226 19.6954H117.598H117.59Z" fill="#33CC99"/>
<path d="M119.049 19.6955H126.878V42.3171H119.049V19.6955ZM119.111 11.527H126.823V17.3793H119.111V11.527Z" fill="#33CC99"/>
<path d="M154.958 19.6722V42.2939H148.906L148.239 40.6957C146.376 42.1935 144.018 43.0582 141.38 43.0582C134.427 43.0582 129.454 38.0089 129.454 30.9831C129.454 23.9572 134.427 18.9851 141.38 18.9851C144.056 18.9851 146.446 19.873 148.324 21.4171L149.123 19.6645H154.958V19.6722ZM147.509 31.0062C147.509 28.0724 145.352 25.8642 142.419 25.8642C139.486 25.8642 137.329 28.0724 137.329 31.0062C137.329 33.9401 139.486 36.1636 142.419 36.1636C145.352 36.1636 147.509 33.9555 147.509 31.0062Z" fill="#33CC99"/>
<path d="M174.178 35.492V42.3171H168.793C163.765 42.3171 160.708 39.2597 160.708 34.2336V25.6945H156.549V23.8724L166.736 13.0789H168.343V19.6955H174.053V25.6945H168.537V32.8979C168.537 34.5192 169.522 35.492 171.175 35.492H174.178Z" fill="#33CC99"/>
<path d="M200 30.7978C200 31.4772 199.938 32.1643 199.837 32.8592H182.953C183.465 35.4533 185.118 36.7967 187.593 36.7967C189.424 36.7967 190.953 36.0015 191.705 34.6736H199.496C197.897 39.8387 193.296 43.0659 187.593 43.0659C180.501 43.0659 175.24 37.9085 175.24 30.9908C175.24 24.073 180.455 18.9542 187.593 18.9542C194.731 18.9542 200 24.158 200 30.79V30.7978ZM183.093 28.5433H192.287C191.597 26.2812 189.96 25.0613 187.601 25.0613C185.242 25.0613 183.729 26.2966 183.1 28.5433H183.093Z" fill="#33CC99"/>
<path d="M7.26257 0C10.6145 0 14.5251 1.14266 18.9944 3.43571C23.1921 5.58978 27.5062 8.54681 31.9444 12.3145L32.7281 11.527H41.6201L41.4649 21.8418C45.4609 26.3584 48.6189 30.7592 50.9389 35.0365C53.4295 39.6535 54.6788 43.6837 54.6788 47.1194C54.6788 49.4124 54.0348 51.1959 52.7467 52.4775C51.4587 53.7592 49.6664 54.4 47.3619 54.4C43.2651 54.4 38.3845 52.7014 32.7359 49.2966C27.4829 46.162 22.2921 42.0392 17.14 36.9203L11.9181 42.3248H2.18808L12.5 31.9096C8.70577 27.4934 5.71074 23.2007 3.50714 19.0161C1.17163 14.5226 0 10.6005 0 7.22657C0 4.93352 0.636251 3.15776 1.90099 1.89157C3.17349 0.633097 4.9581 0 7.26257 0ZM3.50714 8.43872C3.50714 14.3682 7.09963 21.5871 14.2768 30.0798L31.7194 12.6002C23.2309 5.45081 16.0227 1.86841 10.1024 1.86841C8.00745 1.86841 6.37803 2.43974 5.22967 3.59012C4.08132 4.74051 3.50714 6.35413 3.50714 8.44644V8.43872ZM19.5143 35.685C24.0534 40.1708 28.639 43.7532 33.279 46.4554C38.2216 49.3893 42.4891 50.8562 46.0816 50.8562C48.1844 50.8562 49.806 50.2849 50.9621 49.1345C52.1105 47.9918 52.6924 46.3705 52.6924 44.2782C52.6924 38.2792 48.9525 30.9523 41.4649 22.2896V42.3094H31.5099L31.6651 35.685H19.522H19.5143ZM32.1695 21.2087L24.5965 29.1147H31.7582L32.1695 21.2087Z" fill="#33CC99"/>
</g>
<defs>
<clipPath id="clip0_181_437">
<rect width="200" height="54.4" fill="white"/>
</clipPath>
</defs>
</svg>
