<svg width="180" height="49" viewBox="0 0 180 49" fill="none" xmlns="http://www.w3.org/2000/svg">
<g clip-path="url(#clip0_150_739)">
<path d="M41.5433 10.3828H48.5894V38.1235H41.5433V10.3828Z" fill="#33CC99"/>
<path d="M52.0811 10.3828H59.1271V38.1235H52.0811V10.3828Z" fill="#33CC99"/>
<path d="M83.7011 27.7407C83.7011 28.3526 83.6453 28.9716 83.5545 29.5974H68.3589C68.8198 31.9341 70.3073 33.1441 72.5349 33.1441C74.183 33.1441 75.5587 32.4278 76.236 31.2317H83.2472C81.8087 35.8841 77.6676 38.791 72.5349 38.791C66.1522 38.791 61.4176 34.1456 61.4176 27.9145C61.4176 21.6835 66.1103 17.0728 72.5349 17.0728C78.9595 17.0728 83.7011 21.76 83.7011 27.7337V27.7407ZM68.4846 25.71H76.7598C76.1383 23.6724 74.6648 22.5736 72.5419 22.5736C70.419 22.5736 69.0573 23.6863 68.4916 25.71H68.4846Z" fill="#33CC99"/>
<path d="M105.831 17.7405L97.6048 38.1166H91.2221L82.8842 17.7405H90.6076L94.4763 29.8131L98.3032 17.7405H105.838H105.831Z" fill="#33CC99"/>
<path d="M107.144 17.7405H114.19V38.1166H107.144V17.7405ZM107.2 10.3828H114.141V15.6542H107.2V10.3828Z" fill="#33CC99"/>
<path d="M139.462 17.7195V38.0956H134.015L133.415 36.6561C131.739 38.0052 129.616 38.7841 127.242 38.7841C120.985 38.7841 116.508 34.236 116.508 27.9076C116.508 21.5792 120.985 17.1006 127.242 17.1006C129.651 17.1006 131.802 17.9003 133.492 19.2912L134.211 17.7126H139.462V17.7195ZM132.758 27.9284C132.758 25.2858 130.817 23.2969 128.177 23.2969C125.538 23.2969 123.596 25.2858 123.596 27.9284C123.596 30.5711 125.538 32.5739 128.177 32.5739C130.817 32.5739 132.758 30.585 132.758 27.9284Z" fill="#33CC99"/>
<path d="M156.76 31.9689V38.1165H151.913C147.388 38.1165 144.637 35.3626 144.637 30.8353V23.1438H140.894V21.5026L150.063 11.7805H151.508V17.7404H156.648V23.1438H151.683V29.6322C151.683 31.0926 152.57 31.9689 154.057 31.9689H156.76Z" fill="#33CC99"/>
<path d="M180 27.7407C180 28.3526 179.944 28.9716 179.853 29.5974H164.658C165.119 31.9341 166.606 33.1441 168.834 33.1441C170.482 33.1441 171.858 32.4278 172.535 31.2317H179.546C178.108 35.8841 173.967 38.791 168.834 38.791C162.451 38.791 157.717 34.1456 157.717 27.9145C157.717 21.6835 162.409 17.0728 168.834 17.0728C175.258 17.0728 180 21.76 180 27.7337V27.7407ZM164.784 25.71H173.059C172.437 23.6724 170.964 22.5736 168.841 22.5736C166.718 22.5736 165.356 23.6863 164.791 25.71H164.784Z" fill="#33CC99"/>
<path d="M6.53631 0C9.55307 0 13.0726 1.02924 17.095 3.09466C20.8729 5.03491 24.7556 7.69841 28.75 11.0921L29.4553 10.3828H37.4581L37.3184 19.6737C40.9148 23.742 43.757 27.7059 45.845 31.5586C48.0866 35.7173 49.2109 39.3474 49.2109 42.4421C49.2109 44.5075 48.6313 46.114 47.4721 47.2684C46.3129 48.4228 44.6997 49 42.6257 49C38.9385 49 34.5461 47.4701 29.4623 44.4032C24.7346 41.5798 20.0628 37.8662 15.426 33.2555L10.7263 38.1235H1.96927L11.25 28.7421C7.8352 24.7643 5.13966 20.8977 3.15642 17.1284C1.05447 13.081 0 9.54825 0 6.50922C0 4.4438 0.572626 2.84431 1.71089 1.7038C2.85615 0.570253 4.46229 0 6.53631 0ZM3.15642 7.60105C3.15642 12.942 6.38966 19.4442 12.8492 27.094L28.5475 11.3494C20.9078 4.90974 14.4204 1.68294 9.09218 1.68294C7.2067 1.68294 5.74022 2.19756 4.7067 3.23375C3.67318 4.26994 3.15642 5.72339 3.15642 7.608V7.60105ZM17.5628 32.1428C21.648 36.1832 25.7751 39.41 29.9511 41.844C34.3994 44.4867 38.2402 45.808 41.4735 45.808C43.3659 45.808 44.8254 45.2934 45.8659 44.2572C46.8994 43.2279 47.4232 41.7675 47.4232 39.8829C47.4232 34.4794 44.0573 27.8798 37.3184 20.0771V38.1096H28.3589L28.4986 32.1428H17.5698H17.5628ZM28.9525 19.1035L22.1369 26.2247H28.5824L28.9525 19.1035Z" fill="#33CC99"/>
</g>
<defs>
<clipPath id="clip0_150_739">
<rect width="180" height="49" fill="white"/>
</clipPath>
</defs>
</svg>
