<svg width="219" height="71" viewBox="0 0 219 71" fill="none" xmlns="http://www.w3.org/2000/svg">
<g clip-path="url(#clip0_412_2687)">
<path d="M59.49 14.9299H69.58V54.8199H59.49V14.9299Z" fill="#33CC99"/>
<path d="M74.58 14.9299H84.67V54.8199H74.58V14.9299Z" fill="#33CC99"/>
<path d="M119.86 39.89C119.86 40.77 119.78 41.6601 119.65 42.5601H97.89C98.55 45.9201 100.68 47.66 103.87 47.66C106.23 47.66 108.2 46.63 109.17 44.91H119.21C117.15 51.6 111.22 55.78 103.87 55.78C94.73 55.78 87.95 49.1 87.95 40.14C87.95 31.18 94.67 24.55 103.87 24.55C113.07 24.55 119.86 31.2901 119.86 39.8801V39.89ZM98.07 36.9701H109.92C109.03 34.0401 106.92 32.46 103.88 32.46C100.84 32.46 98.89 34.0601 98.08 36.9701H98.07Z" fill="#33CC99"/>
<path d="M151.55 25.51L139.77 54.81H130.63L118.69 25.51H129.75L135.29 42.87L140.77 25.51H151.56H151.55Z" fill="#33CC99"/>
<path d="M153.43 25.5099H163.52V54.8099H153.43V25.5099ZM153.51 14.9299H163.45V22.5099H153.51V14.9299Z" fill="#33CC99"/>
<path d="M197.21 40.37C197.21 41.23 197.14 42.08 197.01 42.96H175.92C176.56 46.22 178.63 47.9 181.72 47.9C184.01 47.9 185.91 46.9 186.86 45.24H196.6C194.6 51.72 188.86 55.77 181.73 55.77C172.87 55.77 166.3 49.29 166.3 40.62C166.3 31.95 172.81 25.51 181.73 25.51C190.65 25.51 197.22 32.04 197.22 40.37H197.21ZM176.09 37.54H187.57C186.71 34.7 184.67 33.17 181.71 33.17C178.75 33.17 176.88 34.72 176.08 37.54H176.09Z" fill="#33CC99"/>
<path d="M218.84 26.31V35.26H215.04C211.58 35.26 210.13 36.7801 210.13 40.4001V54.84H200.35V26.4401H206.9L208.43 29.59C210.43 27.27 212.87 26.3 216.25 26.3H218.84V26.31Z" fill="#33CC99"/>
<path d="M9.36 0C13.68 0 18.72 1.48 24.48 4.45C29.89 7.24 35.45 11.07 41.17 15.95L42.18 14.93H53.64L53.44 28.29C58.59 34.14 62.66 39.84 65.65 45.38C68.86 51.36 70.47 56.58 70.47 61.03C70.47 64 69.64 66.31 67.98 67.97C66.32 69.63 64.01 70.46 61.04 70.46C55.76 70.46 49.47 68.26 42.19 63.85C35.42 59.79 28.73 54.45 22.09 47.82L15.36 54.82H2.82L16.11 41.33C11.22 35.61 7.36 30.05 4.52 24.63C1.51 18.81 0 13.73 0 9.36C0 6.39 0.82 4.09 2.45 2.45C4.09 0.82 6.39 0 9.36 0ZM4.52 10.93C4.52 18.61 9.15 27.96 18.4 38.96L40.88 16.32C29.94 7.06 20.65 2.42 13.02 2.42C10.32 2.42 8.22 3.16 6.74 4.65C5.26 6.14 4.52 8.23 4.52 10.94V10.93ZM25.15 46.22C31 52.03 36.91 56.67 42.89 60.17C49.26 63.97 54.76 65.87 59.39 65.87C62.1 65.87 64.19 65.13 65.68 63.64C67.16 62.16 67.91 60.06 67.91 57.35C67.91 49.58 63.09 40.09 53.44 28.87V54.8H40.61L40.81 46.22H25.16H25.15ZM41.46 27.47L31.7 37.71H40.93L41.46 27.47Z" fill="#33CC99"/>
</g>
<defs>
<clipPath id="clip0_412_2687">
<rect width="218.84" height="70.46" fill="white"/>
</clipPath>
</defs>
</svg>
