<svg width="915" height="314" viewBox="0 0 915 314" fill="none" xmlns="http://www.w3.org/2000/svg">
<g clip-path="url(#clip0_428_2856)">
<path d="M188.919 274.233C188.738 274.233 188.562 274.174 188.418 274.062C188.24 273.926 188.127 273.724 188.102 273.502C187.975 272.366 188.621 271.483 189.189 270.701C189.641 270.079 190.032 269.542 189.963 269.043C189.868 268.357 189.162 268.166 187.578 267.897C186.526 267.718 185.334 267.514 184.426 266.866C182.23 265.295 182.812 262.211 183.238 259.96L183.241 259.941C183.953 256.171 183.672 252.28 182.427 248.654C177.728 247.881 173.131 246.536 168.757 244.655C167.802 244.244 166.816 243.765 166.176 242.844C165.464 241.818 165.422 240.531 165.39 239.591L164.871 224.04C164.769 220.97 164.662 217.793 165.024 214.657C165.123 213.8 165.257 212.936 165.387 212.102C165.747 209.795 166.086 207.616 165.764 205.448C165.64 204.627 165.425 203.824 165.196 202.973C164.947 202.046 164.689 201.085 164.559 200.09C164.028 195.987 165.953 191.638 169.347 189.267C169.719 189.008 170.232 189.098 170.491 189.469C170.751 189.84 170.661 190.352 170.289 190.612C167.383 192.641 165.736 196.365 166.189 199.878C166.304 200.765 166.536 201.629 166.783 202.545C167.013 203.402 167.253 204.288 167.389 205.203C167.749 207.618 167.375 210.025 167.013 212.352C166.885 213.171 166.753 214.018 166.658 214.842C166.309 217.858 166.415 220.971 166.515 223.982L167.034 239.534C167.067 240.522 167.125 241.324 167.529 241.906C167.92 242.471 168.642 242.814 169.408 243.144C173.805 245.036 178.434 246.369 183.166 247.108C183.46 247.154 183.708 247.356 183.81 247.637C185.291 251.666 185.653 256.025 184.855 260.243L184.852 260.262C184.49 262.18 184.04 264.567 185.383 265.528C185.983 265.956 186.933 266.119 187.854 266.275C189.397 266.537 191.319 266.864 191.59 268.813C191.751 269.971 191.096 270.87 190.517 271.665C190.329 271.923 190.147 272.172 190.004 272.415C204.174 270.264 218.412 267.493 232.345 264.176C237.515 262.945 242.126 261.725 246.204 259.246C247.794 258.279 249.379 257.082 250.909 255.925C254.987 252.841 259.204 249.653 264.371 250.043C267.431 250.275 270.178 251.795 272.603 253.137L286.444 260.791C287.025 261.111 287.682 261.476 288.195 262.067C288.959 262.947 289.208 264.112 288.894 265.349C288.476 266.997 287.12 268.509 285.52 269.114C283.699 269.8 281.786 269.698 279.936 269.6C279.305 269.565 278.651 269.531 278.026 269.531H278.001C276.652 269.532 275.218 269.695 273.833 269.852C270.408 270.241 266.868 270.644 263.833 268.803C262.904 268.24 262.105 267.506 261.331 266.795C260.17 265.73 259.076 264.723 257.711 264.439C256.059 264.096 254.335 264.861 252.507 265.669C250.261 266.664 247.94 267.692 245.593 266.62C245.18 266.431 244.998 265.943 245.187 265.531C245.376 265.119 245.864 264.938 246.277 265.125C247.952 265.891 249.84 265.053 251.841 264.168C253.825 263.29 255.877 262.38 258.047 262.832C259.855 263.208 261.172 264.416 262.444 265.587C263.192 266.273 263.897 266.922 264.686 267.401C267.242 268.951 270.353 268.596 273.647 268.222C275.077 268.059 276.558 267.892 278 267.889H278.026C278.695 267.889 279.371 267.925 280.023 267.959C281.781 268.053 283.439 268.142 284.939 267.577C286.042 267.161 287.011 266.079 287.299 264.947C287.424 264.451 287.467 263.736 286.951 263.144C286.628 262.773 286.129 262.497 285.647 262.229L271.806 254.575C269.529 253.316 266.946 251.887 264.244 251.684C259.699 251.339 255.911 254.204 251.9 257.236C250.337 258.419 248.719 259.642 247.057 260.651C242.775 263.254 238.033 264.513 232.725 265.776C218.351 269.199 203.651 272.041 189.037 274.225C188.996 274.231 188.957 274.234 188.916 274.234L188.919 274.233Z" fill="#33CC99"/>
<path d="M198.407 223.833C198.407 223.833 198.394 223.833 198.388 223.833C197.934 223.823 197.574 223.447 197.585 222.994C198.084 201.44 191.796 179.855 186.433 165.544C180.836 150.607 172.305 137.782 161.761 128.458C160.692 127.514 158.905 125.933 159.155 123.836C159.275 122.828 159.851 122.011 160.314 121.352L163.206 117.246C163.449 116.9 163.817 116.377 164.427 116.131C165.146 115.841 166.032 115.939 166.683 116.384C173.751 121.203 179.248 127.591 182.163 134.372C183.407 137.267 184.462 140.025 185.483 142.691C186.956 146.54 188.349 150.175 190.242 154.137C191.957 157.722 193.875 161.267 195.73 164.695C196.836 166.739 197.98 168.854 199.073 170.966C202.119 176.84 204.131 183.038 205.599 188.959C204.981 175.126 203.49 160.474 197.484 147.563C196.665 149.349 196.099 150.974 195.831 152.853C195.767 153.301 195.35 153.613 194.901 153.549C194.452 153.485 194.14 153.069 194.204 152.62C194.618 149.72 195.734 147.323 196.749 145.302C196.888 145.024 197.173 144.849 197.484 144.849C197.794 144.849 198.079 145.024 198.218 145.303C206.456 161.817 207.047 181.16 207.57 198.227C207.583 198.655 207.264 199.021 206.837 199.067C206.411 199.115 206.02 198.824 205.941 198.402C204.388 190.155 202.183 180.536 197.612 171.718C196.523 169.619 195.384 167.511 194.281 165.474C192.417 162.027 190.489 158.465 188.758 154.841C186.835 150.82 185.432 147.155 183.946 143.274C182.93 140.623 181.882 137.881 180.65 135.016C177.857 128.519 172.568 122.382 165.755 117.737C165.555 117.601 165.256 117.564 165.044 117.65C164.882 117.716 164.69 117.988 164.549 118.188L161.657 122.295C161.282 122.827 160.857 123.431 160.786 124.027C160.65 125.174 161.731 126.237 162.849 127.227C173.593 136.728 182.281 149.777 187.97 164.966C193.384 179.413 199.731 201.213 199.226 223.03C199.216 223.477 198.85 223.831 198.404 223.831L198.407 223.833Z" fill="#33CC99"/>
<path d="M221.155 145.922C221.012 145.922 220.866 145.919 220.716 145.913C217.124 145.748 213.837 144.062 210.937 142.575C204.871 139.463 198.598 136.245 192.609 132.727C191.13 131.858 189.734 130.959 188.904 129.507C187.971 127.875 188.008 125.94 188.04 124.385L188.145 119.036C188.158 118.41 188.169 117.763 187.943 117.262C187.661 116.642 186.997 116.19 186.295 115.714L186.166 115.627C182.337 113.021 179.776 109.981 178.55 106.587C177.047 102.43 177.884 97.772 180.629 94.9989C182.196 93.4162 184.532 92.5017 186.876 92.5526C188.973 92.5985 190.831 93.3965 192.105 94.8003C193.106 95.9036 193.757 97.3024 194.385 98.657C195.338 100.711 196.163 102.484 197.936 102.901C199.667 103.308 201.287 102.106 203.002 100.832C203.773 100.259 204.572 99.6667 205.409 99.2053C206.244 98.7423 207.126 98.4189 207.981 98.1053C208.698 97.8426 209.375 97.593 210.016 97.2712C211.612 96.4717 212.939 95.2534 214.343 93.9646C214.723 93.6165 215.116 93.2553 215.51 92.9072C221.796 87.3676 230.108 83.9723 238.485 83.4879C235.674 77.7645 231.161 72.8717 225.671 69.6209C224.242 68.7753 222.713 68.0184 221.236 67.2862C219.837 66.5933 218.388 65.8775 217.003 65.0746C216.472 64.7676 215.942 64.4425 215.43 64.1289C214.059 63.2899 212.765 62.4969 211.348 61.9387C209.706 61.2902 207.804 60.9191 205.366 60.7713C196.902 60.2591 188.447 62.6972 181.561 67.6392C174.675 72.5811 169.663 79.8053 167.45 87.9817C166.617 91.0634 166.11 95.3142 168.44 98.0675C168.575 98.2268 168.719 98.3828 168.874 98.547C169.291 98.9952 169.722 99.4565 170.021 100.067C170.613 101.271 170.37 102.744 169.39 103.909C168.409 105.075 166.998 105.567 165.709 105.193C164.876 104.952 164.215 104.451 163.576 103.968C162.887 103.446 162.29 102.996 161.639 102.987C160.975 102.973 160.306 103.44 159.671 103.916C152.106 109.588 145.993 117.436 142.312 126.16C145.399 125.051 148.541 124.022 151.674 123.091C152.11 122.961 152.567 123.209 152.697 123.644C152.826 124.079 152.578 124.536 152.143 124.665C148.455 125.761 144.757 126.995 141.15 128.332C140.848 128.443 140.507 128.369 140.28 128.14C140.054 127.911 139.981 127.57 140.096 127.269C143.787 117.584 150.389 108.823 158.685 102.602C159.51 101.985 160.487 101.328 161.665 101.345C162.854 101.364 163.765 102.052 164.567 102.66C165.111 103.072 165.626 103.461 166.168 103.617C166.952 103.844 167.717 103.348 168.131 102.854C168.547 102.359 168.905 101.522 168.545 100.79C168.353 100.397 168.021 100.043 167.67 99.6651C167.509 99.4927 167.345 99.3153 167.184 99.1265C164.976 96.5176 164.521 92.5148 165.864 87.5531C168.175 79.0139 173.409 71.468 180.603 66.306C187.795 61.144 196.624 58.5959 205.466 59.1328C208.083 59.292 210.143 59.6976 211.953 60.4118C213.503 61.0242 214.918 61.8911 216.289 62.7301C216.792 63.0387 217.313 63.3572 217.828 63.6544C219.168 64.4294 220.59 65.1337 221.966 65.8151C223.47 66.5605 225.026 67.3305 226.508 68.2073C232.637 71.8374 237.607 77.418 240.502 83.923C240.613 84.1742 240.592 84.4632 240.444 84.6963C240.298 84.9278 240.043 85.0707 239.769 85.0772C231.354 85.2726 222.906 88.5744 216.595 94.1369C216.214 94.4735 215.827 94.8282 215.453 95.1713C214.026 96.4815 212.551 97.8344 210.749 98.7374C210.025 99.1003 209.273 99.3761 208.545 99.6437C207.713 99.9491 206.927 100.238 206.203 100.64C205.463 101.049 204.743 101.584 203.98 102.149C202.04 103.589 200.033 105.08 197.557 104.497C195.006 103.898 193.931 101.584 192.891 99.3465C192.314 98.1037 191.717 96.8197 190.883 95.9019C189.915 94.8364 188.478 94.2289 186.836 94.1928C184.931 94.1517 183.05 94.884 181.795 96.1515C179.485 98.4846 178.801 102.455 180.091 106.029C181.198 109.089 183.55 111.862 187.086 114.269L187.213 114.355C188.033 114.911 188.962 115.542 189.435 116.584C189.817 117.423 189.798 118.335 189.784 119.067L189.678 124.416C189.651 125.839 189.619 127.453 190.328 128.691C190.957 129.793 192.11 130.529 193.44 131.31C199.387 134.804 205.639 138.012 211.685 141.113C214.437 142.525 217.555 144.125 220.788 144.272C222.12 144.333 223.093 144.074 223.683 143.502C224.117 143.082 224.415 142.619 224.545 142.161C226.157 136.485 228.437 131.719 231.516 127.59C231.549 127.545 231.587 127.503 231.63 127.466C232.493 126.701 233.604 126.527 234.585 126.373C235.391 126.247 236.152 126.128 236.665 125.718C237.462 125.082 237.558 123.805 237.544 123.101C237.512 121.367 236.979 119.696 236.413 117.927C236.208 117.282 235.994 116.614 235.808 115.947C234.885 112.618 235.052 109.922 236.307 107.932C236.711 107.29 237.211 106.751 237.694 106.229C238.115 105.776 238.513 105.347 238.827 104.876C239.657 103.635 239.938 102.056 240.153 100.543C240.635 97.1842 240.883 93.761 240.89 90.3689C240.89 89.9158 241.258 89.5496 241.712 89.5496H241.713C242.167 89.5496 242.535 89.919 242.533 90.3722C242.525 93.8414 242.272 97.3418 241.781 100.777C241.537 102.476 241.213 104.262 240.193 105.789C239.805 106.369 239.344 106.866 238.899 107.346C238.447 107.833 238.019 108.295 237.696 108.807C236.698 110.388 236.596 112.644 237.391 115.509C237.569 116.146 237.776 116.799 237.978 117.43C238.554 119.234 239.149 121.098 239.187 123.071C239.21 124.301 238.97 125.981 237.689 127.002C236.836 127.683 235.774 127.849 234.839 127.995C234.038 128.12 233.282 128.238 232.777 128.645C229.848 132.596 227.671 137.163 226.124 142.609C225.916 143.343 225.467 144.061 224.826 144.681C223.974 145.505 222.738 145.922 221.15 145.922H221.155Z" fill="#33CC99"/>
<path d="M370.945 257.215C369.683 257.215 368.328 256.686 367.367 255.79C366.531 255.013 365.917 254.084 365.322 253.186C364.978 252.667 364.646 252.168 364.284 251.71C362.358 253.447 358.493 254.174 356.192 253.486C355.22 254.301 352.615 256.036 349.056 254.936C348.847 254.872 348.671 254.726 348.571 254.532C348.551 254.496 346.654 250.874 345.848 249.538C344.367 247.083 342.779 244.632 341.244 242.259C339.702 239.877 338.106 237.414 336.612 234.937C335.103 232.436 333.542 229.849 331.279 228.01C329.004 226.161 326.221 225.201 323.277 224.184C321.807 223.677 320.288 223.153 318.843 222.51C315.148 220.865 311.883 218.412 308.908 216.006C296.14 205.686 285.147 193.465 276.236 179.682C275.626 178.74 274.936 177.671 273.958 177.295C273.154 176.986 272.161 177.152 271.296 177.356C263.743 179.135 256.891 185.772 252.499 195.565C252.402 195.782 252.216 195.946 251.987 196.015C251.76 196.084 251.514 196.051 251.312 195.927C236.288 186.557 224.688 167.373 217.269 153.759C217.052 153.36 217.2 152.863 217.598 152.646C217.997 152.429 218.495 152.577 218.712 152.974C225.911 166.184 237.079 184.691 251.394 194.032C253.417 189.748 255.997 185.931 258.887 182.946C262.513 179.203 266.56 176.784 270.916 175.758C272.026 175.497 273.326 175.293 274.546 175.763C276.024 176.331 276.905 177.695 277.613 178.792C286.429 192.428 297.305 204.52 309.938 214.731C312.827 217.065 315.986 219.443 319.509 221.012C320.89 221.626 322.374 222.139 323.809 222.634C326.76 223.652 329.811 224.705 332.313 226.737C334.798 228.757 336.508 231.591 338.015 234.09C339.497 236.544 341.085 238.995 342.62 241.368C344.162 243.75 345.758 246.213 347.252 248.691C347.951 249.848 349.373 252.534 349.858 253.457C353.142 254.291 355.312 252.076 355.406 251.978C355.647 251.725 356.024 251.651 356.343 251.795C358.13 252.606 362.47 251.746 363.594 250.02C363.73 249.812 363.952 249.677 364.201 249.651C364.449 249.625 364.694 249.713 364.868 249.891C365.591 250.623 366.15 251.465 366.691 252.28C367.258 253.135 367.794 253.944 368.486 254.588C369.224 255.274 370.375 255.67 371.286 255.55C371.817 255.48 372.209 255.248 372.453 254.859C373.015 253.961 372.558 252.907 371.739 251.28C371.363 250.531 370.973 249.756 370.746 248.955C370.242 247.162 370.644 245.382 371.034 243.66C371.108 243.337 371.18 243.013 371.246 242.693C371.572 241.118 371.708 238.994 370.518 237.808C369.512 236.807 367.881 236.712 366.153 236.61C364.103 236.49 361.985 236.365 360.591 234.705C359.971 233.968 359.678 233.106 359.395 232.274C359.177 231.632 358.971 231.026 358.633 230.542C357.53 228.959 355.212 228.599 351.339 229.414C350.923 229.501 350.509 229.256 350.384 228.851C346.082 214.813 341.957 200.511 338.126 186.34C337.989 185.834 337.761 184.987 338.173 184.214C338.528 183.55 339.191 183.251 339.63 183.053L344.454 180.872C339.861 177.489 339.189 175.671 340.552 171.695C341.635 168.534 343.519 163.04 348.807 157.277C341.52 159.771 332.868 160.617 328.346 160.704C321.48 160.837 316.856 162.522 314.211 165.853C313.065 167.298 312.312 169.068 311.585 170.782L301.809 193.809C301.632 194.226 301.15 194.421 300.733 194.244C300.315 194.066 300.12 193.585 300.297 193.167L310.073 170.14C310.842 168.325 311.64 166.45 312.924 164.832C315.892 161.091 320.928 159.205 328.315 159.061C333.178 158.965 344.374 157.837 351.952 154.243C352.32 154.068 352.764 154.191 352.989 154.531C353.215 154.871 353.157 155.325 352.851 155.598C346.148 161.576 343.79 167.316 342.107 172.226C340.838 175.926 341.75 176.998 346.562 180.362C346.804 180.531 346.937 180.817 346.909 181.111C346.881 181.404 346.698 181.661 346.429 181.782L340.307 184.549C340.072 184.655 339.715 184.816 339.623 184.987C339.516 185.187 339.643 185.658 339.712 185.911C343.475 199.826 347.52 213.869 351.738 227.662C354.554 227.145 358.141 226.961 359.982 229.604C360.454 230.281 360.707 231.026 360.952 231.747C361.197 232.467 361.429 233.149 361.851 233.651C362.788 234.768 364.47 234.866 366.25 234.971C368.208 235.086 370.232 235.206 371.678 236.646C373.053 238.014 373.449 240.16 372.857 243.025C372.788 243.356 372.714 243.688 372.638 244.023C372.278 245.615 371.936 247.118 372.329 248.51C372.512 249.16 372.865 249.863 373.207 250.543C374.019 252.155 374.938 253.984 373.847 255.729C373.345 256.53 372.512 257.044 371.501 257.177C371.318 257.202 371.133 257.213 370.944 257.213L370.945 257.215Z" fill="#33CC99"/>
<path d="M371.872 230.221C371.848 230.221 371.823 230.221 371.797 230.218C371.345 230.177 371.011 229.778 371.052 229.327C372.395 214.473 376.095 198.682 382.653 179.917C380.662 181.91 378.436 183.65 375.998 185.115C375.859 185.199 375.717 185.282 375.576 185.366C374.019 186.291 372.412 187.248 371.871 188.758C371.624 189.448 371.611 190.231 371.598 191.06C371.588 191.651 371.578 192.262 371.483 192.878C371.121 195.207 369.666 197.045 368.261 198.821C368.098 199.026 367.935 199.232 367.776 199.437C363.265 205.223 360.278 212.11 359.139 219.354C359.07 219.797 358.657 220.103 358.214 220.04C357.77 219.978 357.457 219.572 357.512 219.128C359.109 206.091 358.809 192.915 356.617 179.966L356.514 179.355C355.952 176.07 355.371 172.671 356.297 169.38C356.404 169 356.765 168.749 357.158 168.784C357.551 168.818 357.865 169.127 357.904 169.519C358.376 174.164 359.826 178.777 362.098 182.859C362.19 183.023 362.282 183.187 362.376 183.352C363.04 184.524 363.727 185.737 363.964 187.146C364.084 187.86 364.087 188.594 364.09 189.302C364.095 190.628 364.099 191.773 364.809 192.515C365.123 192.843 365.111 193.362 364.782 193.676C364.454 193.989 363.934 193.978 363.62 193.649C362.458 192.434 362.451 190.773 362.446 189.308C362.445 188.637 362.442 188.001 362.343 187.419C362.154 186.295 361.567 185.258 360.944 184.161C360.849 183.994 360.753 183.826 360.661 183.657C359.489 181.552 358.527 179.311 357.793 176.999C357.898 177.695 358.016 178.392 358.135 179.081L358.24 179.695C359.933 189.702 360.51 199.844 359.969 209.953C361.557 205.825 363.75 201.934 366.48 198.43C366.643 198.222 366.808 198.015 366.972 197.805C368.246 196.194 369.564 194.531 369.859 192.628C369.938 192.124 369.946 191.595 369.956 191.036C369.97 190.11 369.987 189.154 370.326 188.208C371.065 186.143 373.016 184.982 374.739 183.959C374.879 183.875 375.017 183.793 375.155 183.711C378.66 181.605 381.708 178.901 384.213 175.671C384.461 175.351 384.905 175.259 385.258 175.454C385.613 175.65 385.773 176.073 385.635 176.453C378.229 196.869 374.118 213.718 372.693 229.478C372.655 229.905 372.295 230.225 371.876 230.225L371.872 230.221Z" fill="#33CC99"/>
<path d="M373.952 173.292C371.501 173.292 369.227 172.685 367.294 171.501C365.113 170.166 363.254 168.086 361.442 164.955C357.334 157.857 357.637 152.569 358.613 149.382C358.712 149.058 358.823 148.728 358.932 148.408C359.441 146.901 359.923 145.479 359.328 144.35C359.07 143.862 358.595 143.438 358.135 143.028C349.572 135.408 341.07 127.484 332.865 119.48C332.39 119.017 331.129 117.788 331.553 116.336C331.839 115.356 332.737 114.85 333.33 114.517C335.895 113.074 339.109 111.045 341.221 108.142C343.33 105.244 344.007 101.714 342.988 98.9311C342.832 98.5059 343.051 98.0347 343.478 97.8787C343.905 97.7227 344.376 97.9411 344.532 98.368C345.737 101.658 344.977 105.773 342.551 109.107C340.251 112.268 336.847 114.424 334.138 115.947C333.659 116.217 333.222 116.484 333.132 116.796C333.033 117.136 333.321 117.63 334.013 118.307C342.199 126.293 350.683 134.198 359.226 141.803C359.769 142.286 360.385 142.834 360.78 143.584C361.703 145.336 361.056 147.247 360.485 148.934C360.377 149.255 360.273 149.561 360.181 149.861C359.3 152.736 359.05 157.545 362.862 164.132C364.533 167.017 366.213 168.913 368.151 170.1C371.563 172.19 377.498 172.552 383.065 168.649C387.56 165.498 390.614 160.661 393.356 155.977C393.874 155.092 394.461 154.089 395.432 153.424C395.766 153.196 396.106 153.033 396.437 152.876C396.703 152.749 396.953 152.629 397.17 152.488C397.865 152.037 398.375 151.27 398.868 150.528L401.774 146.156C402.611 144.898 403.403 143.566 403.112 142.342C402.999 141.862 402.682 141.654 402.435 141.563C401.94 141.381 401.32 141.494 400.821 141.859C400.546 142.059 400.178 142.071 399.892 141.887C399.606 141.705 399.463 141.365 399.53 141.033L400.982 133.868C401.223 132.678 401.496 131.33 401.207 130.149C400.591 127.622 397.594 126.281 394.995 125.869C394.143 125.734 393.247 125.649 392.381 125.567C390.233 125.363 388.012 125.153 385.991 124.163C384.487 123.426 383.251 122.327 382.056 121.267C381.088 120.406 380.174 119.595 379.135 118.968C377.751 118.133 375.906 117.863 374.544 118.302C373.728 118.563 373.164 119.047 372.869 119.738C372.62 120.316 372.586 121.004 372.55 121.735C372.512 122.493 372.472 123.278 372.196 124.056C371.422 126.238 369.341 127.2 367.329 128.13C365.575 128.941 363.918 129.706 363.313 131.187C363.16 131.563 362.752 131.771 362.358 131.674C361.962 131.579 361.697 131.208 361.733 130.803C362.326 124.207 363.066 115.998 367.886 110.03C370.87 106.334 375.663 103.722 381.384 102.673C386.746 101.689 392.445 102.195 397.018 104.059C404.322 107.034 408.687 115.031 408.687 121.044C408.687 121.497 408.318 121.864 407.865 121.864C407.411 121.864 407.043 121.497 407.043 121.044C407.043 118.336 406.028 115.179 404.258 112.383C402.857 110.17 400.357 107.191 396.397 105.579C392.105 103.83 386.741 103.361 381.68 104.288C376.345 105.267 371.902 107.672 369.165 111.061C365.267 115.888 364.207 122.475 363.62 128.292C364.518 127.619 365.588 127.125 366.638 126.641C368.42 125.818 370.104 125.04 370.648 123.51C370.843 122.958 370.875 122.326 370.909 121.654C370.952 120.814 370.995 119.943 371.359 119.095C371.844 117.963 372.773 117.149 374.044 116.742C375.86 116.159 378.195 116.482 379.99 117.568C381.157 118.274 382.171 119.173 383.151 120.044C384.316 121.078 385.416 122.055 386.72 122.694C388.47 123.552 390.446 123.739 392.541 123.936C393.432 124.02 394.354 124.107 395.256 124.252C399.299 124.894 402.121 126.954 402.807 129.765C403.181 131.3 402.871 132.84 402.594 134.198L401.444 139.88C401.976 139.8 402.516 139.846 403.005 140.027C403.873 140.347 404.496 141.054 404.713 141.967C405.157 143.832 404.136 145.578 403.145 147.068L400.239 151.441C399.68 152.281 399.047 153.234 398.067 153.869C397.762 154.068 397.449 154.217 397.148 154.362C396.862 154.499 396.591 154.628 396.363 154.785C395.695 155.242 395.228 156.04 394.776 156.811C391.942 161.651 388.776 166.657 384.011 169.998C381.566 171.713 378.65 172.844 375.8 173.185C375.173 173.261 374.557 173.297 373.95 173.297L373.952 173.292Z" fill="#33CC99"/>
<path d="M340.458 94.8052C340.129 94.8052 339.82 94.6065 339.692 94.2831C339.023 92.5756 338.177 90.7137 336.603 90.2573C336.362 90.1867 336.09 90.1473 335.804 90.1062C335.449 90.0553 335.083 90.0028 334.705 89.8846C333.638 89.5513 332.804 88.7796 332.196 88.2164C323.201 79.8841 315.595 70.2399 309.59 59.5514L309.309 59.049C308.322 57.2857 307.303 55.4616 305.899 54.0627C304.472 52.6409 302.745 51.8545 301.145 51.8545C301.242 57.4334 301.234 63.6495 298.548 69.061C297.641 70.89 296.454 72.5565 295.306 74.1672C294.53 75.2573 293.728 76.3853 293.034 77.5346C292.494 78.4327 291.979 79.403 291.481 80.3405C289.9 83.3254 288.262 86.4104 285.297 88.2263C282.172 90.1407 277.885 90.2786 273.829 88.5974C270.165 87.0787 267.14 84.3794 264.594 81.9709C261.048 78.6166 257.06 74.5218 254.369 69.5848C253.981 68.8738 253.62 68.1432 253.27 67.4356C252.725 66.3372 252.162 65.1994 251.511 64.1617C250.353 62.3147 248.813 60.5907 247.324 58.9243C244.582 55.8556 241.746 52.6836 241.041 48.5117C240.771 46.9158 240.934 45.5662 241.524 44.4957C242.328 43.041 244.013 42.2496 245.445 42.6535C246.375 42.9162 247.039 43.5861 247.574 44.123C249.597 46.1622 252.367 48.9566 252.91 52.5079C252.974 52.9266 253.005 53.3436 253.034 53.7475C253.089 54.4683 253.14 55.148 253.367 55.7456C253.564 56.2661 254.016 56.7488 254.478 56.8933L255.39 41.1874C255.459 39.9921 255.538 38.6376 256.171 37.4193C256.912 35.9876 258.262 35.0107 260.075 34.5937C261.601 34.2424 263.379 34.3343 264.957 34.8466C266.511 35.3506 267.931 36.1354 269.305 36.8939C270.528 37.5704 271.686 38.2074 272.927 38.6655C274.217 39.1416 275.567 39.4093 276.995 39.6933C278.756 40.043 280.577 40.4042 282.272 41.1907C282.56 41.3253 282.846 41.4698 283.12 41.611C284.016 42.069 284.866 42.5025 285.718 42.491C286.911 42.4762 288.016 41.5995 289.137 40.6242L297.956 32.9453C298.37 32.5857 298.798 32.213 299.082 31.7944C299.921 30.563 299.613 28.8686 299.048 27.693C298.505 26.5667 297.687 25.5947 296.82 24.5637C296.582 24.2796 296.342 23.9956 296.11 23.7083C294.013 21.124 292.36 18.2327 291.2 15.1148C290.996 14.5681 290.805 14.0066 290.62 13.4631C289.944 11.4814 289.305 9.60972 288.052 8.13699C286.416 6.21603 283.857 5.18494 281.598 4.277C278.767 3.13756 275.841 1.95871 272.799 1.70094C270.486 1.50392 268.002 1.8208 265.207 2.66799C260.085 4.22118 255.768 6.99754 252.724 10.6983C250.187 13.7817 248.441 17.6301 247.536 22.1387C246.738 26.1037 246.599 30.4809 247.123 35.1454C247.174 35.5952 246.849 36.0024 246.398 36.0533C245.948 36.1042 245.54 35.7791 245.489 35.3293C244.947 30.4957 245.093 25.9477 245.925 21.8169C246.885 17.0424 248.746 12.9509 251.455 9.65734C254.706 5.70541 259.296 2.74516 264.731 1.09674C267.727 0.187161 270.413 -0.149417 272.938 0.0656647C276.228 0.344779 279.27 1.57124 282.213 2.75501C284.648 3.73519 287.408 4.84672 289.305 7.07471C290.761 8.78552 291.481 10.8953 292.176 12.9345C292.357 13.4664 292.546 14.0164 292.742 14.5435C293.84 17.4939 295.403 20.2308 297.387 22.6755C297.614 22.9547 297.846 23.2305 298.079 23.508C298.974 24.5702 299.899 25.6686 300.53 26.9821C301.295 28.5698 301.673 30.9094 300.443 32.7187C300.039 33.3131 299.506 33.7761 299.038 34.1849L290.219 41.8638C289.191 42.7586 287.638 44.1115 285.741 44.1345C284.478 44.1525 283.408 43.6042 282.374 43.0755C282.101 42.9359 281.841 42.8029 281.582 42.6831C280.066 41.9787 278.419 41.652 276.676 41.3072C275.248 41.0232 273.772 40.7309 272.36 40.2105C271 39.7097 269.736 39.0103 268.511 38.3355C267.144 37.5802 265.853 36.8677 264.451 36.4129C261.168 35.3473 258.487 36.5278 257.632 38.1795C257.161 39.0891 257.096 40.2072 257.034 41.2892L256.079 57.7273C256.059 58.059 255.842 58.3463 255.528 58.4547C253.952 59.0031 252.382 57.7815 251.833 56.3367C251.52 55.5158 251.458 54.6834 251.397 53.8772C251.368 53.4881 251.34 53.1203 251.285 52.7624C250.86 49.968 248.825 47.7236 246.408 45.2871C245.989 44.8651 245.515 44.3873 245.001 44.2412C244.214 44.0196 243.349 44.6041 242.966 45.2969C242.558 46.0325 242.458 47.0258 242.663 48.2457C243.29 51.9497 245.846 54.8114 248.552 57.839C250.087 59.5564 251.675 61.3328 252.906 63.2981C253.602 64.4064 254.182 65.5803 254.744 66.7148C255.088 67.4077 255.443 68.1235 255.814 68.8065C258.395 73.5416 262.273 77.5198 265.727 80.7854C268.168 83.0939 271.056 85.6765 274.462 87.0885C278.031 88.5695 281.761 88.4742 284.44 86.834C287.023 85.2529 288.484 82.4963 290.031 79.5787C290.539 78.6215 291.064 77.6298 291.629 76.694C292.354 75.4905 293.176 74.3379 293.97 73.2231C295.132 71.5911 296.228 70.051 297.078 68.3386C299.71 63.0354 299.594 56.7061 299.492 51.1222C299.483 50.7134 299.779 50.362 300.182 50.2963C302.478 49.9269 305.051 50.9022 307.063 52.9069C308.63 54.4683 309.707 56.3942 310.747 58.256L311.027 58.7551C316.946 69.2925 324.447 78.8021 333.317 87.0195C333.957 87.6123 334.539 88.1179 335.198 88.3248C335.449 88.4036 335.737 88.4447 336.039 88.4874C336.37 88.535 336.712 88.5842 337.065 88.686C339.546 89.4084 340.637 92.193 341.224 93.6904C341.39 94.1123 341.181 94.5885 340.759 94.7543C340.66 94.792 340.559 94.8117 340.46 94.8117L340.458 94.8052Z" fill="#33CC99"/>
<path d="M279.057 125.493C278.981 125.493 278.906 125.483 278.83 125.462C278.478 125.36 278.235 125.038 278.235 124.672C278.238 113.603 277.582 105.149 276.045 96.4027C275.96 95.9151 275.871 95.4898 275.651 95.2485C275.348 94.9168 274.806 94.8856 273.948 94.8725C273.198 94.8626 272.35 94.8495 271.589 94.4473C270.872 94.068 270.372 93.4145 269.933 92.8399C269.346 92.0715 269.026 91.7119 268.622 91.7415C268.426 91.7563 268.179 91.886 267.943 92.019C265.331 93.4851 263.07 95.5768 261.408 98.0675C261.278 98.2613 261.073 98.391 260.841 98.4254C260.609 98.4583 260.376 98.3926 260.197 98.2416C253.304 92.4721 250.593 83.7408 247.996 73.7583C247.883 73.32 248.146 72.8717 248.585 72.7568C249.023 72.6435 249.472 72.9062 249.587 73.3446C252.022 82.7048 254.547 90.9238 260.575 96.3928C262.317 94.0237 264.569 92.0272 267.136 90.5873C267.515 90.3738 267.966 90.144 268.498 90.1046C269.836 90.0061 270.612 91.0257 271.237 91.8433C271.607 92.3276 271.957 92.7857 272.356 92.9959C272.766 93.2126 273.351 93.2208 273.969 93.2307C274.949 93.2438 276.06 93.2602 276.864 94.1419C277.424 94.7559 277.567 95.5752 277.663 96.117C279.088 104.226 279.764 112.081 279.864 121.938C281.537 119.487 283.329 117.159 285.075 114.89C288.83 110.01 292.711 104.963 295.486 98.6356C295.699 98.148 296.118 97.7572 296.605 97.593C297.361 97.3353 298.058 97.7441 298.393 97.9395C301.545 99.7833 304.476 101.415 307.311 102.993C310.155 104.576 313.096 106.211 316.262 108.065C317 108.497 318.011 109.088 318.536 110.104C318.769 110.555 318.874 111.028 318.968 111.447C319.047 111.8 319.121 112.133 319.257 112.396C319.64 113.133 320.581 113.503 321.577 113.895C322.739 114.351 324.057 114.87 324.738 116.121C324.955 116.52 324.807 117.018 324.408 117.234C324.008 117.451 323.51 117.303 323.293 116.904C322.898 116.177 321.963 115.811 320.974 115.422C319.797 114.959 318.463 114.435 317.796 113.151C317.561 112.7 317.456 112.224 317.362 111.805C317.283 111.452 317.209 111.12 317.073 110.858C316.788 110.308 316.187 109.925 315.429 109.482C312.278 107.638 309.345 106.006 306.509 104.426C303.667 102.844 300.726 101.208 297.56 99.3547C297.29 99.1971 297.172 99.1561 297.12 99.1512C297.075 99.1725 297.018 99.2267 296.99 99.294C294.134 105.804 290.191 110.931 286.377 115.89C284.118 118.825 281.782 121.863 279.75 125.105C279.598 125.35 279.331 125.491 279.053 125.491L279.057 125.493Z" fill="#33CC99"/>
<path d="M265.607 162.505C265.327 162.505 265.059 162.362 264.906 162.114C261.92 157.268 258.832 152.257 257.504 146.528C256.983 144.282 256.738 141.934 256.501 139.664C256.038 135.226 255.601 131.034 253.279 127.562C253.115 127.317 252.944 127.079 252.763 126.826C252.25 126.112 251.719 125.375 251.379 124.496C250.708 122.771 250.934 120.863 251.113 119.331C251.165 118.881 251.575 118.559 252.025 118.612C252.476 118.665 252.799 119.073 252.745 119.523C252.577 120.947 252.388 122.559 252.911 123.904C253.178 124.587 253.625 125.211 254.098 125.871C254.279 126.123 254.468 126.384 254.647 126.652C257.195 130.461 257.673 135.055 258.137 139.496C258.369 141.718 258.609 144.015 259.107 146.161C260.151 150.658 262.377 154.767 264.757 158.719C264.701 152.513 264.683 145.038 264.898 140.792C265.725 124.509 267.374 105.694 269.195 100.358C269.342 99.9294 269.808 99.6995 270.239 99.8457C270.668 99.9918 270.898 100.458 270.752 100.888C269.22 105.377 267.528 121.447 266.54 140.875C266.291 145.783 266.358 155.099 266.43 161.678C266.434 162.047 266.192 162.372 265.837 162.476C265.761 162.497 265.684 162.508 265.608 162.508L265.607 162.505Z" fill="#33CC99"/>
<path d="M456.863 174.743C456.378 174.743 455.897 174.719 455.417 174.671C453.748 174.504 451.399 173.936 449.693 172.177C448.216 170.657 447.574 168.629 446.952 166.669C446.285 164.561 445.654 162.571 444.064 161.431C443.798 161.241 443.495 161.064 443.175 160.876C442.205 160.308 441.104 159.666 440.735 158.397C440.485 157.539 440.688 156.719 440.865 155.997C440.975 155.55 441.079 155.128 441.069 154.747C441.048 154.01 440.599 153.293 440.122 152.533C439.994 152.329 439.867 152.125 439.747 151.922C438.735 150.198 438.182 148.231 438.151 146.233C438.145 145.77 438.164 145.307 438.184 144.859C438.232 143.752 438.278 142.706 437.921 141.795C437.808 141.503 437.646 141.214 437.476 140.907C437.272 140.539 437.061 140.16 436.903 139.729C436.392 138.344 436.594 136.846 436.755 135.643L438.195 124.908C438.233 124.628 438.413 124.386 438.671 124.27C438.929 124.153 439.23 124.178 439.465 124.334C444.743 127.839 451.136 129.557 457.462 129.172L457.637 129.161C460.514 128.985 464.095 128.765 465.794 131.445C466.378 132.364 466.544 133.384 466.705 134.37C466.833 135.154 466.953 135.892 467.275 136.506C467.801 137.511 468.829 138.175 470.116 138.94L476.851 142.934C477.178 143.128 477.517 143.328 477.826 143.384C478.506 143.506 479.442 143.208 480.642 139.81C481.687 136.853 484.069 133.637 487.621 133.481C487.746 133.476 487.873 133.474 488 133.472C488.396 133.467 488.769 133.462 488.966 133.323C489.175 133.177 489.308 132.791 489.418 132.441C491.756 124.969 491.299 117.018 488.164 110.624C484.764 103.693 478.228 98.7719 471.109 97.7851C465.074 96.9478 458.297 98.9114 452.517 103.174C447.847 106.617 443.706 111.449 439.483 118.379C439.246 118.766 438.741 118.889 438.353 118.653C437.965 118.417 437.842 117.913 438.079 117.525C442.415 110.406 446.694 105.426 451.54 101.852C457.664 97.3385 464.879 95.2633 471.336 96.1581C478.991 97.2203 486.006 102.486 489.642 109.902C492.959 116.668 493.451 125.061 490.988 132.931C490.797 133.54 490.543 134.226 489.91 134.668C489.297 135.098 488.588 135.106 488.021 135.114C487.911 135.114 487.801 135.117 487.694 135.122C484.955 135.242 483.019 138.019 482.192 140.358C481.648 141.9 480.372 145.509 477.536 145.001C476.933 144.893 476.422 144.591 476.011 144.346L469.276 140.352C468.084 139.644 466.601 138.766 465.817 137.268C465.373 136.419 465.225 135.513 465.081 134.636C464.939 133.774 464.806 132.962 464.404 132.325C463.225 130.464 460.309 130.643 457.736 130.801L457.56 130.813C451.31 131.193 445.003 129.63 439.652 126.399L438.383 135.861C438.238 136.938 438.074 138.158 438.445 139.163C438.56 139.473 438.731 139.784 438.912 140.11C439.101 140.452 439.297 140.803 439.451 141.197C439.933 142.43 439.879 143.699 439.825 144.929C439.805 145.374 439.787 145.793 439.793 146.208C439.82 147.924 440.293 149.613 441.163 151.093C441.274 151.283 441.395 151.474 441.513 151.664C442.059 152.534 442.677 153.521 442.71 154.705C442.726 155.307 442.585 155.884 442.46 156.393C442.312 156.99 442.185 157.507 442.312 157.942C442.497 158.583 443.196 158.99 444.003 159.463C444.342 159.661 444.692 159.865 445.021 160.101C447.053 161.559 447.797 163.907 448.517 166.178C449.107 168.04 449.665 169.797 450.87 171.039C452.231 172.442 454.182 172.903 455.578 173.044C460.177 173.505 465.084 171.461 470.58 166.797C476.746 161.563 479.915 156.225 480.004 150.933C480.009 150.674 480.135 150.433 480.346 150.282C480.556 150.131 480.827 150.086 481.074 150.165C483.663 150.981 486.75 149.781 488.105 147.431C488.233 147.21 488.457 147.06 488.71 147.027C488.964 146.995 489.218 147.082 489.398 147.262C494.111 151.986 501.805 153.475 508.012 151.071C506.703 150.313 505.429 148.943 504.678 146.778C503.886 144.496 502.98 140.311 502.778 137.999C502.124 130.484 501.249 124.339 496.551 119.349C496.24 119.019 496.257 118.499 496.587 118.188C496.917 117.878 497.439 117.894 497.749 118.224C502.809 123.598 503.733 130.02 504.417 137.858C504.606 140.025 505.487 144.098 506.232 146.241C506.8 147.88 508.203 149.891 510.28 150.167C510.634 150.214 510.917 150.482 510.981 150.832C511.045 151.181 510.875 151.533 510.563 151.702C507.126 153.555 502.975 154.243 498.872 153.641C495.116 153.089 491.631 151.487 488.953 149.098C487.247 151.245 484.312 152.39 481.6 151.968C481.153 157.414 477.809 162.819 471.648 168.048C466.348 172.547 461.496 174.75 456.863 174.75V174.743Z" fill="#33CC99"/>
<path d="M483.38 215.921C481.398 215.921 479.507 215.588 477.758 214.911C472.93 213.043 469.458 208.713 466.669 205.234C466.163 204.602 465.531 203.816 465.281 202.845C464.818 201.044 465.743 199.394 466.559 197.938C466.628 197.815 466.697 197.692 466.764 197.57C469.789 192.099 470.221 185.363 467.921 179.551C467.755 179.129 467.963 178.653 468.383 178.485C468.806 178.319 469.283 178.525 469.45 178.947C471.928 185.209 471.462 192.467 468.203 198.363C468.133 198.488 468.063 198.613 467.992 198.739C467.293 199.985 466.572 201.272 466.873 202.435C467.035 203.064 467.501 203.645 467.951 204.206C470.757 207.705 473.936 211.67 478.352 213.379C485.859 216.285 493.921 211.519 497.039 209.336C497.181 209.237 497.473 209.032 497.517 208.892C497.559 208.764 497.466 208.462 497.422 208.318C496.668 205.835 495.417 203.459 494.207 201.162C493.663 200.13 493.102 199.062 492.586 197.99C490.39 193.423 489.661 189.727 490.289 186.358C490.668 184.332 491.54 182.493 492.385 180.715L502.252 159.936C502.446 159.525 502.937 159.351 503.347 159.545C503.758 159.739 503.932 160.23 503.738 160.638L493.871 181.418C493.073 183.1 492.246 184.841 491.907 186.658C491.345 189.668 492.032 193.042 494.069 197.279C494.572 198.325 495.127 199.379 495.663 200.399C496.908 202.765 498.196 205.21 498.997 207.841C499.097 208.168 499.283 208.779 499.084 209.396C498.87 210.061 498.316 210.45 497.984 210.682C493.059 214.131 487.978 215.923 483.382 215.923L483.38 215.921Z" fill="#33CC99"/>
<path d="M451.417 256.393C451.171 256.393 450.919 256.373 450.661 256.335C448.731 256.044 446.924 254.692 446.167 252.971C444.96 250.232 445.591 247.224 446.405 244.126C447.168 241.225 448.031 237.936 449.974 235.272C451.79 232.779 454.414 231.243 456.998 231.057C455.313 228.437 454.1 225.682 453.178 223.139C452.826 225.516 452.282 227.864 451.549 230.154C451.411 230.586 450.949 230.824 450.515 230.686C450.082 230.548 449.844 230.085 449.982 229.653C451.07 226.256 451.726 222.728 451.937 219.169C451.96 218.771 452.265 218.448 452.662 218.402C453.059 218.356 453.429 218.6 453.544 218.981C455.17 224.401 456.936 228.253 459.27 231.473C459.467 231.743 459.479 232.106 459.301 232.39C459.124 232.674 458.79 232.821 458.459 232.761C456.572 232.425 453.566 233.132 451.302 236.239C449.541 238.652 448.756 241.647 447.995 244.543C447.257 247.349 446.678 250.057 447.671 252.311C448.202 253.518 449.532 254.504 450.906 254.713C451.471 254.798 452.233 254.779 452.859 254.289C452.339 252.094 452.877 249.579 454.371 247.302C455.755 245.19 457.672 243.594 459.526 242.049L472.876 230.932C470.708 229.011 467.995 228.404 464.418 229.021C463.975 229.097 463.554 228.805 463.47 228.363C462.29 222.034 462.309 216.88 463.527 213.041C463.664 212.609 464.127 212.37 464.56 212.508C464.992 212.644 465.232 213.107 465.096 213.539C464.009 216.962 463.96 221.584 464.946 227.284C469.021 226.764 472.217 227.793 474.701 230.418C474.857 230.583 474.937 230.804 474.924 231.031C474.911 231.257 474.804 231.468 474.63 231.612L460.58 243.314C458.818 244.781 456.996 246.298 455.747 248.205C454.432 250.211 453.99 252.488 454.565 254.294C454.652 254.567 454.59 254.866 454.402 255.081C453.654 255.943 452.612 256.397 451.417 256.397V256.393Z" fill="#33CC99"/>
<path d="M474.124 262.515C472.095 262.515 470.188 262.257 468.604 261.1C467.905 260.589 467.307 259.932 466.726 259.297C465.692 258.162 464.801 257.181 463.649 257.274C463.2 257.309 462.801 256.972 462.765 256.521C462.729 256.069 463.067 255.673 463.519 255.637C465.474 255.485 466.786 256.923 467.941 258.192C468.489 258.795 469.008 259.363 469.572 259.775C471.155 260.932 473.387 260.934 475.727 260.83L489.099 260.234C490.242 260.184 491.169 260.106 491.848 259.619C492.862 258.893 493.12 257.337 493.283 255.936C493.765 251.784 494.075 247.077 491.623 243.755C491.437 243.504 491.411 243.167 491.555 242.89C491.697 242.617 491.978 242.447 492.285 242.447C492.292 242.447 492.297 242.447 492.303 242.447C498.361 242.578 504.494 242.816 510.548 243.158C510.264 233.994 507.552 225.068 502.681 217.285C502.441 216.901 502.558 216.394 502.942 216.154C503.327 215.913 503.835 216.031 504.075 216.415C509.263 224.702 512.076 234.246 512.214 244.018C512.217 244.246 512.125 244.464 511.96 244.622C511.796 244.78 511.571 244.862 511.344 244.849C505.526 244.51 499.628 244.267 493.789 244.125C495.681 247.73 495.379 252.17 494.919 256.127C494.715 257.877 494.368 259.837 492.809 260.954C491.678 261.763 490.232 261.829 489.175 261.876L475.802 262.472C475.237 262.497 474.676 262.517 474.124 262.517V262.515Z" fill="#33CC99"/>
<path d="M533.089 265.556C532.946 265.556 532.814 265.544 532.701 265.534L532.645 265.529C526.393 264.997 520.354 264.045 514.513 263.122C510.54 262.495 506.431 261.847 502.337 261.346C501.887 261.29 501.566 260.881 501.621 260.431C501.675 259.982 502.086 259.661 502.536 259.716C506.657 260.22 510.782 260.87 514.768 261.5C520.581 262.418 526.591 263.367 532.782 263.892L532.842 263.897C532.929 263.906 533.051 263.915 533.123 263.912C533.145 263.869 533.176 263.787 533.22 263.633C534.266 259.936 534.529 256.202 533.982 252.836C533.38 249.134 531.853 246.005 529.441 243.532C529.231 243.317 529.155 243.005 529.244 242.718C529.333 242.43 529.569 242.215 529.864 242.154C538.4 240.399 545.816 239.455 554.39 239.041C551.147 233.609 548.014 227.795 545.038 221.685C545.666 225.92 545.946 229.818 545.885 233.484C545.878 233.932 545.512 234.292 545.063 234.292C545.058 234.292 545.053 234.292 545.05 234.292C544.596 234.285 544.234 233.911 544.241 233.458C544.326 228.212 543.7 222.467 542.326 215.893C542.24 215.484 542.477 215.075 542.873 214.946C543.271 214.816 543.703 215.003 543.878 215.384C547.808 223.963 552.057 232.034 556.507 239.375C556.659 239.623 556.665 239.933 556.529 240.187C556.391 240.444 556.129 240.608 555.838 240.619C547.244 240.972 539.911 241.834 531.6 243.478C533.687 246.001 535.03 249.053 535.602 252.57C536.188 256.171 535.91 260.151 534.8 264.076C534.72 264.364 534.55 264.961 534.014 265.304C533.702 265.505 533.372 265.551 533.084 265.551L533.089 265.556Z" fill="#33CC99"/>
<path d="M1385.79 300.524C1385.78 300.524 1385.77 300.524 1385.75 300.524L590.113 264.037C590.013 264.034 589.927 264.022 589.838 263.991C589.454 263.856 589.223 263.459 589.301 263.06C589.311 263.006 589.327 262.953 589.347 262.904C589.957 261.067 590.172 258.932 589.97 256.727C589.674 253.488 588.62 250.428 587.379 247.05C582.962 235.044 578.958 226.171 574.393 218.28C574.044 217.679 573.692 217.082 573.339 216.482C572.336 214.783 571.299 213.025 570.396 211.217C569.279 208.979 568.348 206.628 567.449 204.356C566.574 202.149 565.672 199.867 564.607 197.721C563.229 194.945 561.516 192.267 559.861 189.678C558.235 187.133 556.552 184.503 555.161 181.746C552.74 176.945 551.181 171.734 549.674 166.692C549.064 164.653 548.434 162.545 547.757 160.5C546.864 157.803 545.618 154.912 543.161 153.917C541.859 153.39 540.287 153.455 538.9 153.514L521.842 154.23C521.393 154.248 521.005 153.897 520.985 153.444C520.966 152.991 521.319 152.608 521.773 152.588L538.831 151.873C540.384 151.807 542.147 151.733 543.777 152.395C546.855 153.641 548.305 156.931 549.315 159.985C549.999 162.052 550.634 164.172 551.247 166.222C552.733 171.195 554.27 176.336 556.627 181.007C557.98 183.69 559.641 186.284 561.245 188.794C562.923 191.421 564.661 194.137 566.078 196.992C567.173 199.199 568.09 201.514 568.976 203.752C569.864 205.993 570.781 208.308 571.866 210.483C572.744 212.24 573.766 213.972 574.754 215.648C575.109 216.251 575.464 216.852 575.815 217.458C580.427 225.432 584.469 234.384 588.919 246.482C590.156 249.843 591.291 253.143 591.605 256.576C591.793 258.629 591.65 260.633 591.191 262.441L1385.83 298.88C1386.28 298.902 1386.63 299.286 1386.61 299.737C1386.59 300.177 1386.23 300.52 1385.79 300.52L1385.79 300.524Z" fill="#33CC99"/>
<path d="M423.409 256.391C423.396 256.391 423.384 256.391 423.371 256.391L381.106 254.453C380.652 254.432 380.302 254.048 380.322 253.596C380.343 253.143 380.726 252.79 381.18 252.813L422.306 254.7C421.083 249.63 422.59 244.302 424.436 239.27C425.278 236.976 426.263 233.157 427.307 229.115C428.554 224.281 429.965 218.816 431.38 215.056C431.04 213.639 430.537 212.478 430.007 211.253C429.498 210.074 428.97 208.856 428.581 207.374C427.359 202.725 426.991 198.483 426.598 193.992C426.478 192.622 426.355 191.203 426.205 189.776C426.125 189.001 426.057 188.213 425.991 187.453C425.811 185.328 425.623 183.13 425.109 181.061C424.491 178.579 422.679 177.081 419.053 176.054C417.831 175.707 416.664 175.233 415.535 174.775C414.302 174.274 413.137 173.801 411.902 173.478C405.761 171.867 401.549 169.977 395.541 166.03C396.104 168.247 396.568 170.309 397.022 172.318C397.612 174.934 398.22 177.638 399.039 180.644C399.229 181.345 399.466 182.215 399.328 183.114C399.012 185.149 397.544 186.348 396.124 187.507C395.735 187.824 395.338 188.149 394.955 188.496C396.616 189.023 398.886 189.878 399.816 190.43C400.301 190.717 400.609 191.164 400.704 191.722C400.974 193.301 399.391 195.582 398.016 197.217C393.154 202.998 385.171 217.095 378.673 237.795C378.537 238.227 378.076 238.468 377.642 238.332C377.21 238.196 376.968 237.736 377.105 237.303C381.211 224.221 388.824 205.595 396.759 196.16C398.503 194.086 399.183 192.574 399.085 191.996C399.072 191.914 399.049 191.881 398.98 191.84C397.896 191.2 394.449 189.988 393.21 189.701C392.929 189.635 392.702 189.428 392.613 189.154C392.524 188.88 392.587 188.579 392.776 188.361C393.512 187.519 394.311 186.865 395.084 186.235C396.425 185.14 397.484 184.274 397.702 182.861C397.788 182.309 397.617 181.682 397.451 181.074C396.622 178.034 396.009 175.312 395.416 172.678C394.826 170.063 394.217 167.358 393.399 164.352C393.308 164.021 393.435 163.668 393.716 163.467C393.997 163.269 394.372 163.264 394.656 163.459C401.493 168.128 405.785 170.177 412.318 171.888C413.656 172.24 414.925 172.755 416.153 173.253C417.291 173.714 418.366 174.151 419.502 174.473C423.715 175.666 425.937 177.576 426.705 180.664C427.251 182.861 427.445 185.123 427.63 187.313C427.695 188.067 427.76 188.845 427.841 189.605C427.992 191.047 428.115 192.472 428.237 193.851C428.622 198.271 428.985 202.446 430.17 206.958C430.529 208.321 431.009 209.431 431.517 210.603C432.082 211.908 432.666 213.258 433.04 214.936C433.075 215.093 433.063 215.258 433.006 215.409C431.594 219.086 430.162 224.633 428.9 229.525C427.846 233.609 426.85 237.465 425.98 239.834C424.228 244.612 422.498 250.144 424.188 255.317C424.272 255.573 424.224 255.854 424.06 256.069C423.904 256.274 423.662 256.393 423.406 256.393L423.409 256.391Z" fill="#33CC99"/>
<path d="M287.399 250.154C287.386 250.154 287.375 250.154 287.362 250.154L270.239 249.369C270.004 249.357 269.784 249.246 269.636 249.062C266.828 245.566 264.652 243.199 262.73 241.109C262.086 240.408 261.476 239.744 260.877 239.076C260.016 238.115 259.304 237.002 258.617 235.925C257.338 233.922 256.13 232.029 254.139 231.338C250.879 230.208 247.416 233.006 245.085 235.553C244.585 236.098 244.079 236.666 243.589 237.216C240.839 240.302 237.995 243.494 234.148 245.253C231.622 246.408 228.885 246.842 226.069 247.22C220.351 247.985 214.534 248.54 208.775 248.871C208.414 248.891 208.085 248.676 207.958 248.339C207.159 246.208 207.241 243.734 208.188 241.371C209.071 239.17 210.628 237.199 212.574 235.82C215.635 233.651 219.671 232.546 224.893 232.451C224.754 232.039 224.405 231.653 224.033 231.428C223.351 231.014 222.495 230.88 221.587 230.735L221.425 230.709C217.956 230.157 214.816 229.125 212.347 227.724C209.873 226.32 208.049 224.559 206.904 222.474C205.575 225.391 204.666 228.539 203.78 231.599C203.416 232.855 203.041 234.152 202.642 235.421C201.256 239.818 199.106 245.343 194.743 249.063C194.398 249.357 193.879 249.316 193.584 248.971C193.29 248.627 193.331 248.108 193.676 247.814C197.72 244.364 199.755 239.115 201.075 234.927C201.47 233.678 201.841 232.389 202.201 231.143C203.268 227.453 204.371 223.638 206.211 220.157C206.364 219.868 206.673 219.697 206.998 219.722C207.324 219.746 207.605 219.96 207.713 220.267C208.639 222.879 211.683 227.498 221.684 229.087L221.846 229.112C222.824 229.266 223.93 229.44 224.89 230.023C225.942 230.661 226.9 232.013 226.521 233.471C226.427 233.832 226.1 234.085 225.725 234.085C225.702 234.085 225.672 234.085 225.648 234.085C220.412 234.085 216.447 235.09 213.529 237.158C210.61 239.227 208.244 243.368 209.316 247.193C214.826 246.862 220.387 246.323 225.855 245.591C228.543 245.231 231.146 244.821 233.468 243.759C237 242.143 239.727 239.083 242.364 236.122C242.857 235.569 243.367 234.996 243.875 234.443C247.697 230.271 251.433 228.66 254.682 229.785C257.213 230.661 258.633 232.888 260.008 235.04C260.66 236.062 261.334 237.119 262.107 237.979C262.7 238.641 263.305 239.299 263.946 239.997C265.832 242.048 267.961 244.364 270.691 247.745L285.445 248.421C283.816 246.267 282.91 243.387 282.91 240.235C282.91 237.083 283.388 234.636 283.895 232.046C284.082 231.083 284.278 230.089 284.454 229.025C284.528 228.578 284.952 228.274 285.399 228.348C285.846 228.422 286.15 228.846 286.076 229.292C285.895 230.379 285.7 231.386 285.509 232.359C285.017 234.87 284.554 237.24 284.554 240.235C284.554 243.736 285.79 246.827 287.947 248.715C288.21 248.945 288.299 249.316 288.167 249.64C288.042 249.952 287.74 250.154 287.404 250.154H287.399Z" fill="#33CC99"/>
<path d="M0.822029 314C0.462024 314 0.131608 313.762 0.0313323 313.399C-0.0903133 312.962 0.164485 312.509 0.601752 312.388L132.074 275.74C128.483 271.74 126.638 266.987 126.138 260.532C126.125 260.361 126.109 260.144 126.091 259.895C125.994 258.594 125.831 256.419 125.696 255.562C125.52 254.45 125.542 253.342 125.563 252.268C125.568 252.05 125.571 251.83 125.575 251.611C125.616 248.308 125.252 244.946 124.902 241.695L122.505 219.458C122.247 217.062 121.979 214.585 121.891 212.123C121.739 208.011 122.08 203.85 122.408 199.828C122.818 194.817 123.24 189.637 122.696 184.603C122.63 183.997 122.53 183.32 122.168 182.964C122.029 182.826 121.815 182.705 121.591 182.577C121.388 182.46 121.154 182.327 120.934 182.158C119.188 180.815 119.362 178.4 119.711 176.446C119.79 175.999 120.216 175.701 120.664 175.781C121.111 175.86 121.409 176.287 121.33 176.733C121.064 178.231 120.893 180.053 121.938 180.858C122.07 180.959 122.234 181.053 122.408 181.152C122.699 181.319 123.031 181.508 123.324 181.795C124.07 182.529 124.235 183.539 124.332 184.427C124.892 189.615 124.463 194.874 124.047 199.961C123.724 203.935 123.387 208.047 123.535 212.063C123.622 214.466 123.886 216.914 124.141 219.282L126.538 241.519C126.893 244.819 127.261 248.231 127.22 251.633C127.217 251.856 127.213 252.079 127.209 252.303C127.187 253.35 127.167 254.339 127.322 255.306C127.468 256.23 127.634 258.45 127.733 259.775C127.751 260.021 127.767 260.238 127.781 260.407C128.29 266.992 130.268 271.673 134.195 275.584C134.402 275.791 134.484 276.091 134.41 276.374C134.336 276.656 134.118 276.878 133.837 276.957L1.04395 313.969C0.969976 313.99 0.896003 314 0.822029 314Z" fill="#33CC99"/>
<path d="M413.562 267.928H326.492C325.336 267.928 324.389 266.971 324.381 265.794L324.334 258.786C324.33 258.187 324.559 257.626 324.98 257.205C325.384 256.8 325.92 256.578 326.487 256.578H326.502L344.262 256.696C344.034 256.46 343.822 256.205 343.626 255.936C341.025 252.331 338.349 248.62 334.821 245.837C335.487 249.262 334.187 251.011 332.834 251.897C331.156 252.994 329.188 253.17 327.286 253.339C326.939 253.37 326.594 253.399 326.254 253.437C325.511 253.516 324.75 253.631 324.011 253.741C322.315 253.995 320.559 254.26 318.779 254.146C315.633 253.948 312.601 252.615 309.774 250.186C307.471 248.208 305.357 245.563 303.491 242.327C302.582 240.751 301.735 239.101 300.917 237.505C298.846 233.469 296.702 229.297 293.462 226.158C290.468 223.258 286.596 221.3 282.851 219.405C282.414 219.183 281.978 218.963 281.544 218.742C274.199 214.99 266.633 209.907 259.035 203.619C258.79 211.88 258.911 218.43 259.403 223.597C259.446 224.048 259.113 224.449 258.663 224.491C258.211 224.534 257.81 224.202 257.767 223.753C257.236 218.167 257.131 211.012 257.447 201.878C257.458 201.565 257.647 201.284 257.935 201.156C258.223 201.028 258.558 201.077 258.799 201.279C266.739 207.989 274.643 213.371 282.294 217.279C282.726 217.5 283.16 217.719 283.595 217.939C287.45 219.889 291.435 221.905 294.608 224.977C298.043 228.305 300.249 232.6 302.382 236.753C303.192 238.331 304.03 239.963 304.918 241.504C307.177 245.425 311.995 252.069 318.886 252.506C320.49 252.608 322.083 252.368 323.77 252.115C324.524 252.002 325.303 251.886 326.081 251.802C326.431 251.764 326.786 251.733 327.143 251.702C328.922 251.544 330.602 251.395 331.936 250.523C333.579 249.449 333.807 247.287 332.614 244.093C332.49 243.763 332.592 243.391 332.867 243.169C333.141 242.947 333.528 242.924 333.825 243.113C338.586 246.134 341.828 250.63 344.964 254.977C345.559 255.803 346.406 256.458 347.238 256.739C347.599 256.826 347.865 257.151 347.865 257.537C347.865 257.8 347.741 258.046 347.528 258.2C347.367 258.318 347.17 258.371 346.976 258.356L326.495 258.218C326.369 258.22 326.242 258.269 326.147 258.364C326.04 258.471 325.981 258.617 325.982 258.773L326.03 265.779C326.032 266.056 326.242 266.283 326.497 266.283H413.345L405.382 259.289C404.98 258.936 404.468 258.739 403.942 258.735L353.747 258.399C353.293 258.396 352.929 258.026 352.93 257.573C352.933 257.121 353.3 256.757 353.752 256.757H353.757L403.952 257.094C404.875 257.1 405.767 257.442 406.467 258.056L414.577 265.178C415.073 265.613 415.242 266.298 415.007 266.92C414.777 267.529 414.212 267.925 413.567 267.925L413.562 267.928Z" fill="#33CC99"/>
</g>
<defs>
<clipPath id="clip0_428_2856">
<rect width="915" height="314" fill="white"/>
</clipPath>
</defs>
</svg>
