<svg width="50" height="50" viewBox="0 0 50 50" fill="none" xmlns="http://www.w3.org/2000/svg">
<g id="&#60;">
<path id="&#235;&#185;&#188;&#234;&#184;&#176; 37" d="M24.9741 50C18.7766 49.9936 12.8021 47.6853 8.21025 43.5232C3.61837 39.3612 0.736433 33.6428 0.122899 27.4758C-0.490635 21.3088 1.20762 15.1325 4.88948 10.1474C8.57133 5.16221 13.9745 1.72242 20.0492 0.495098C26.1239 -0.732219 32.4375 0.341086 37.766 3.50583C43.0944 6.67057 47.0581 11.7014 48.8869 17.6228C50.7157 23.5442 50.2789 29.9334 47.663 35.5517C45.0472 41.17 40.438 45.6168 34.7291 48.0287C31.6431 49.3352 28.3253 50.0059 24.9741 50ZM21.9617 16.0008C21.8374 16.0006 21.7158 16.0378 21.6125 16.1068C21.5091 16.1758 21.4283 16.2743 21.3808 16.3891C21.3332 16.504 21.3221 16.6296 21.3465 16.7514C21.3709 16.8732 21.4298 16.9852 21.5178 17.0729L29.052 24.6054L21.5178 32.1379C21.4594 32.1958 21.4141 32.266 21.3824 32.3419C21.3507 32.4179 21.3334 32.4995 21.3334 32.5818C21.3334 32.6641 21.3507 32.7441 21.3824 32.82C21.4141 32.896 21.4594 32.9661 21.5178 33.024C21.6364 33.1414 21.7965 33.2074 21.9633 33.2084C22.0449 33.2096 22.1262 33.1939 22.2016 33.1627C22.277 33.1316 22.3453 33.0857 22.4023 33.0273L30.3803 25.0493C30.4082 25.0187 30.4342 24.9864 30.4586 24.953C30.5378 24.8325 30.5741 24.6884 30.5598 24.545C30.5455 24.4016 30.4817 24.2673 30.3803 24.1648L22.4023 16.1868C22.3453 16.1289 22.2781 16.0829 22.2032 16.0513C22.1284 16.0198 22.0478 16.0027 21.9666 16.0024L21.9617 16.0008Z" fill="#33CC99"/>
</g>
</svg>
