<svg width="60" height="60" viewBox="0 0 60 60" fill="none" xmlns="http://www.w3.org/2000/svg">
<g clip-path="url(#clip0_452_462)">
<path fill-rule="evenodd" clip-rule="evenodd" d="M0 1.49375C0 0.66875 0.66875 0 1.49375 0C2.31875 0 2.9875 0.66875 2.9875 1.49375V57.0063H58.5062C59.3312 57.0063 60 57.675 60 58.5C60 59.325 59.3312 59.9938 58.5062 59.9938H1.49375C0.66875 59.9938 0 59.325 0 58.5V1.49375ZM40.5 18C39.675 18 39 17.3313 39 16.5C39 15.6688 39.6688 15 40.5 15H55.6125H55.6187H55.6437H55.6562H55.6812H55.6937H55.7188L55.7312 15.0063H55.75H55.7625H55.7812H55.7937H55.8125L55.825 15.0125H55.8438L55.8625 15.0188H55.875L55.8937 15.025H55.9125L55.9438 15.0375H55.9625L55.975 15.05H55.9937L56.0062 15.0625L56.025 15.075H56.0375L56.0563 15.0875H56.0687L56.0875 15.1H56.1L56.1188 15.1125H56.1312L56.15 15.1313H56.1625L56.1813 15.1438L56.2125 15.1625L56.2437 15.1813L56.2563 15.1938H56.2687L56.2875 15.2125L56.3 15.225L56.3187 15.2375H56.3312L56.3625 15.2625L56.3812 15.275H56.3875L56.4062 15.3H56.4125L56.4313 15.325L56.4563 15.3563L56.4813 15.3813L56.5063 15.4062L56.5312 15.4313L56.5812 15.4875L56.6063 15.5188L56.6187 15.5438H56.6312L56.6437 15.5688L56.6625 15.6V15.6125L56.6813 15.6313V15.6438L56.7 15.6625L56.7125 15.675V15.6938L56.7375 15.725L56.75 15.7438V15.7563L56.7688 15.775V15.7875L56.7812 15.8063V15.8188L56.7938 15.8375V15.85L56.8063 15.8688V15.8813L56.8188 15.9V15.9125L56.8312 15.9313V15.9438L56.8438 15.9625V15.975L56.8625 16.0312V16.0437L56.875 16.0625V16.1L56.8875 16.1187V16.1375L56.9 16.1562V16.1938L56.9062 16.2062V16.2312V16.2437V16.2687V16.2812V16.3062L56.9125 16.3125V16.3812L56.9188 16.4562V31.4563C56.9188 32.2813 56.2437 32.9562 55.4187 32.9562C54.5937 32.9562 53.9187 32.2813 53.9187 31.4563V20.075L35.475 38.5187C34.8937 39.1063 33.9375 39.1063 33.35 38.5187L25.4125 30.575L11.4688 44.5188C10.8813 45.1 9.93125 45.1 9.34375 44.5188C8.75625 43.9313 8.75625 42.9813 9.34375 42.3938L24.35 27.3938C24.9375 26.8063 25.8875 26.8063 26.475 27.3938L34.4188 35.3375L51.8 17.9562H40.4187L40.5 18Z" fill="#33CC99"/>
</g>
<defs>
<clipPath id="clip0_452_462">
<rect width="60" height="60" fill="white"/>
</clipPath>
</defs>
</svg>
