<svg width="60" height="60" viewBox="0 0 60 60" fill="none" xmlns="http://www.w3.org/2000/svg">
<path fill-rule="evenodd" clip-rule="evenodd" d="M18 16C18 9.375 23.375 4 30 4C36.625 4 42 9.375 42 16V35.5C42 37.9875 39.9875 40 37.5 40H35.7437C35.125 38.25 33.4562 37 31.5 37H28.5C26.0125 37 24 39.0125 24 41.5C24 43.9875 26.0125 46 28.5 46H31.5C33.4562 46 35.125 44.75 35.7437 43H37.5C41.125 43 44.1562 40.425 44.85 37H46.5C48.9875 37 51 34.9875 51 32.5V23.5C51 21.0125 48.9875 19 46.5 19H45V16C45 7.71875 38.2812 1 30 1C21.7188 1 15 7.71875 15 16V19H13.5C11.0125 19 9 21.0125 9 23.5V32.5C9 34.9875 11.0125 37 13.5 37H16.5C17.3312 37 18 36.3312 18 35.5V16ZM45 34V22H46.5C47.3312 22 48 22.675 48 23.5V32.5C48 33.3312 47.3312 34 46.5 34H45ZM13.5 22H15V34H13.5C12.675 34 12 33.325 12 32.5V23.5C12 22.675 12.675 22 13.5 22ZM10.5 10C11.3312 10 12 10.675 12 11.5C12 12.325 11.325 13 10.5 13H9C7.34375 13 6 14.3438 6 16V46C6 47.6562 7.34375 49 9 49H51C52.6562 49 54 47.6562 54 46V16C54 14.3438 52.6562 13 51 13H49.5C48.6687 13 48 12.3312 48 11.5C48 10.6687 48.675 10 49.5 10H51C54.3125 10 57 12.6875 57 16V46C57 49.3125 54.3125 52 51 52H9C5.6875 52 3 49.3125 3 46V16C3 12.6875 5.6875 10 9 10H10.5ZM0 56.5C0 55.6688 0.675 55 1.5 55H58.5C59.3312 55 60 55.675 60 56.5C60 57.325 59.325 58 58.5 58H1.5C0.675 58 0 57.3313 0 56.5ZM27 41.5C27 40.6688 27.675 40 28.5 40H31.5C32.3312 40 33 40.675 33 41.5C33 42.325 32.3312 43 31.5 43H28.5C27.675 43 27 42.3313 27 41.5Z" fill="#33CC99"/>
</svg>
