<svg width="60" height="60" viewBox="0 0 60 60" fill="none" xmlns="http://www.w3.org/2000/svg">
<g id="2 icon">
<path id="Vector" fill-rule="evenodd" clip-rule="evenodd" d="M8.20496 18.2994L25.7325 13.3368L25.8638 13.2993L51.4613 6.05541C52.2551 5.83041 53.0802 6.31167 53.299 7.11793L56.2369 17.8681V17.9056L56.2557 17.9431L59.7187 30.6245C59.9375 31.4308 59.4687 32.2683 58.6748 32.4933L45.0041 36.3871C45.0228 36.6371 45.0291 36.8809 45.0291 37.1059C45.0291 40.0559 43.8539 42.7247 41.9536 44.656C40.3846 46.2498 38.3281 47.3436 36.0278 47.6748V51.1686C36.034 52.7624 36.6716 54.2124 37.6968 55.2562C38.7344 56.3124 40.1596 56.9625 41.7161 56.9625H58.506C59.3312 56.9625 60 57.6437 60 58.4812C60 59.3187 59.3312 60 58.506 60H41.7223C39.3407 60 37.1842 59.0187 35.6152 57.4375L35.5902 57.4125C34.015 55.7999 33.0336 53.5936 33.0336 51.1686V47.6748C31.3708 47.4311 29.8269 46.7873 28.5079 45.8435C27.1327 44.856 26.0013 43.5435 25.2262 42.0185L20.5818 43.3372C19.9004 43.531 19.1941 43.206 18.869 42.5935L16.5312 38.1559L7.94242 40.556C7.26732 40.7935 6.49846 40.5122 6.13591 39.8497L0.185039 28.8433C0.12878 28.737 0.0850241 28.6245 0.0537695 28.5058C-0.165012 27.6995 0.303806 26.862 1.09767 26.6432L9.27386 24.3744L7.22981 20.4994C6.83601 19.7619 7.11105 18.8369 7.83615 18.4431C7.95492 18.3806 8.07369 18.3306 8.19245 18.3056L8.20496 18.2994ZM53.7741 20.1806L31.9522 26.387C31.2646 26.5807 30.5645 26.2557 30.2394 25.6432L25.4512 16.5681L10.7553 20.7306L12.7869 24.5807L12.7994 24.6119L18.619 35.6434L18.6252 35.6621L20.9506 40.0747L42.9538 33.8183L42.9913 33.8058L56.4495 29.9745L53.7741 20.1869V20.1806ZM28.4016 15.7306L32.3022 23.1307L52.9677 17.2493L50.8174 9.38671L28.3954 15.7306H28.4016ZM42.0349 37.2246L28.1954 41.1622C28.7267 42.0122 29.4205 42.756 30.2332 43.3435C31.4458 44.2123 32.9336 44.7248 34.54 44.7248C36.6091 44.7248 38.4844 43.8685 39.8408 42.4935C41.1723 41.1435 41.9974 39.2809 42.0349 37.2309V37.2246ZM15.0935 35.3996L10.7241 27.112L3.72305 29.0558L8.20496 37.3246L15.0935 35.3996Z" fill="#33CC99"/>
</g>
</svg>
