<svg width="115" height="19" viewBox="0 0 115 19" fill="none" xmlns="http://www.w3.org/2000/svg">
<path d="M9.98818 0.317649L12.5025 5.65732C12.5818 5.82554 12.7347 5.94231 12.9121 5.97002L18.5335 6.82698C18.9789 6.89427 19.1583 7.47019 18.8355 7.80071L14.7676 11.9569C14.6393 12.0875 14.5808 12.2775 14.611 12.4615L15.5718 18.3316C15.6473 18.7967 15.181 19.1529 14.7827 18.9333L9.75411 16.1625C9.59555 16.0754 9.40679 16.0754 9.24823 16.1625L4.21959 18.9333C3.8213 19.1529 3.35317 18.7987 3.43056 18.3316L4.39136 12.4615C4.42157 12.2775 4.36305 12.0875 4.23469 11.9569L0.164967 7.79873C-0.157817 7.46821 0.0196199 6.89427 0.466987 6.825L6.08834 5.96804C6.26578 5.94033 6.41867 5.82356 6.49796 5.65534L9.01227 0.317649C9.21236 -0.105883 9.78809 -0.105883 9.98818 0.317649Z" fill="#33CC99"/>
<path d="M33.9882 0.317649L36.5025 5.65732C36.5818 5.82554 36.7347 5.94231 36.9121 5.97002L42.5335 6.82698C42.9789 6.89427 43.1583 7.47019 42.8355 7.80071L38.7676 11.9569C38.6393 12.0875 38.5808 12.2775 38.611 12.4615L39.5718 18.3316C39.6473 18.7967 39.181 19.1529 38.7827 18.9333L33.7541 16.1625C33.5956 16.0754 33.4068 16.0754 33.2482 16.1625L28.2196 18.9333C27.8213 19.1529 27.3532 18.7987 27.4306 18.3316L28.3914 12.4615C28.4216 12.2775 28.363 12.0875 28.2347 11.9569L24.165 7.79873C23.8422 7.46821 24.0196 6.89427 24.467 6.825L30.0883 5.96804C30.2658 5.94033 30.4187 5.82356 30.498 5.65534L33.0123 0.317649C33.2124 -0.105883 33.7881 -0.105883 33.9882 0.317649Z" fill="#33CC99"/>
<path d="M57.9882 0.317649L60.5025 5.65732C60.5818 5.82554 60.7347 5.94231 60.9121 5.97002L66.5335 6.82698C66.9789 6.89427 67.1583 7.47019 66.8355 7.80071L62.7676 11.9569C62.6393 12.0875 62.5808 12.2775 62.611 12.4615L63.5718 18.3316C63.6473 18.7967 63.181 19.1529 62.7827 18.9333L57.7541 16.1625C57.5956 16.0754 57.4068 16.0754 57.2482 16.1625L52.2196 18.9333C51.8213 19.1529 51.3532 18.7987 51.4306 18.3316L52.3914 12.4615C52.4216 12.2775 52.363 12.0875 52.2347 11.9569L48.165 7.79873C47.8422 7.46821 48.0196 6.89427 48.467 6.825L54.0883 5.96804C54.2658 5.94033 54.4187 5.82356 54.498 5.65534L57.0123 0.317649C57.2124 -0.105883 57.7881 -0.105883 57.9882 0.317649Z" fill="#33CC99"/>
<path d="M81.9882 0.317649L84.5025 5.65732C84.5818 5.82554 84.7347 5.94231 84.9121 5.97002L90.5335 6.82698C90.9789 6.89427 91.1583 7.47019 90.8355 7.80071L86.7676 11.9569C86.6393 12.0875 86.5808 12.2775 86.611 12.4615L87.5718 18.3316C87.6473 18.7967 87.181 19.1529 86.7827 18.9333L81.7541 16.1625C81.5956 16.0754 81.4068 16.0754 81.2482 16.1625L76.2196 18.9333C75.8213 19.1529 75.3532 18.7987 75.4306 18.3316L76.3914 12.4615C76.4216 12.2775 76.363 12.0875 76.2347 11.9569L72.165 7.79873C71.8422 7.46821 72.0196 6.89427 72.467 6.825L78.0883 5.96804C78.2658 5.94033 78.4187 5.82356 78.498 5.65534L81.0123 0.317649C81.2124 -0.105883 81.7881 -0.105883 81.9882 0.317649Z" fill="#33CC99"/>
<path d="M105.988 0.317649L108.502 5.65732C108.582 5.82554 108.735 5.94231 108.912 5.97002L114.533 6.82698C114.979 6.89427 115.158 7.47019 114.835 7.80071L110.768 11.9569C110.639 12.0875 110.581 12.2775 110.611 12.4615L111.572 18.3316C111.647 18.7967 111.181 19.1529 110.783 18.9333L105.754 16.1625C105.596 16.0754 105.407 16.0754 105.248 16.1625L100.22 18.9333C99.8213 19.1529 99.3532 18.7987 99.4306 18.3316L100.391 12.4615C100.422 12.2775 100.363 12.0875 100.235 11.9569L96.165 7.79873C95.8422 7.46821 96.0196 6.89427 96.467 6.825L102.088 5.96804C102.266 5.94033 102.419 5.82356 102.498 5.65534L105.012 0.317649C105.212 -0.105883 105.788 -0.105883 105.988 0.317649Z" fill="#33CC99"/>
</svg>
