<svg width="366" height="366" viewBox="0 0 366 366" fill="none" xmlns="http://www.w3.org/2000/svg">
<g clip-path="url(#clip0_452_628)">
<path d="M25.0372 235.724C40.5685 206.946 61.7099 177.338 88.4612 146.951L152.197 82.8513C181.857 57.5024 210.79 37.5558 238.892 23.1152C268.812 7.68777 294.94 0 317.38 0C332.808 0 344.755 4.25944 353.222 12.7783C361.741 21.2452 366 33.2444 366 48.6199C366 71.3196 358.156 97.7074 342.521 127.887C327.769 155.989 307.718 184.922 282.318 214.634L251.307 248.346C216.868 282.785 182.065 310.575 146.899 331.613C109.031 354.52 76.4102 365.948 48.9836 365.948C33.5561 365.948 21.5569 361.637 12.9341 353.014C4.31137 344.391 0 332.392 0 316.965C0 293.849 8.36304 266.734 25.0372 235.672V235.724ZM24.8294 330.626C32.5172 338.314 43.4255 342.21 57.5024 342.21C81.5527 342.21 110.122 332.34 143.211 312.601C174.273 294.473 205.024 270.319 235.36 240.139C251.411 224.815 270.37 202.375 270.37 202.375C318.523 145.236 342.521 96.7204 342.521 56.7752C342.521 42.6983 338.677 31.8419 330.989 24.1022C323.302 16.4144 312.393 12.5186 298.368 12.5186C258.735 12.5186 210.479 36.5688 153.651 84.7213C153.651 84.7213 98.4865 137.964 88.4612 149.911C38.3349 208.193 13.2978 257.488 13.2978 297.849C13.2978 311.926 17.1417 322.782 24.8813 330.522L24.8294 330.626Z" fill="#33CC99"/>
</g>
<defs>
<clipPath id="clip0_452_628">
<rect width="366" height="366" fill="white" transform="matrix(-1 0 0 1 366 0)"/>
</clipPath>
</defs>
</svg>
