<svg width="539" height="539" viewBox="0 0 539 539" fill="none" xmlns="http://www.w3.org/2000/svg">
<g clip-path="url(#clip0_452_353)">
<path d="M480.238 336.327C461.191 301.6 435.364 264.555 403.875 227.701C390.093 211.569 375.225 195.475 359.361 179.626C343.536 163.807 327.459 148.983 311.343 135.238C274.466 103.776 237.398 77.9681 202.641 58.9217C132.14 20.2856 71.182 9.4926 40.741 35.7676C39.815 36.5631 38.9197 37.3968 38.0473 38.2612C37.1826 39.1256 36.3485 40.0282 35.5527 40.9537C9.2516 71.3592 20.0567 132.27 58.7316 202.711C77.7936 237.431 103.62 274.468 135.11 311.314C148.868 327.408 163.706 343.471 179.539 359.29C195.402 375.139 211.511 389.994 227.657 403.77C264.541 435.231 301.624 461.032 336.374 480.063C408.971 519.816 471.43 530.043 500.845 500.655C530.253 471.266 520.022 408.864 480.23 336.335L480.238 336.327Z" stroke="#33CC99" stroke-miterlimit="10"/>
<path d="M38.2617 76.4919C59.393 76.4919 76.5234 59.3686 76.5234 38.2459C76.5234 17.1233 59.393 0 38.2617 0C17.1303 0 0 17.1233 0 38.2459C0 59.3686 17.1303 76.4919 38.2617 76.4919Z" fill="#151515" stroke="#33CC99" stroke-dasharray="10 10"/>
<path fill-rule="evenodd" clip-rule="evenodd" d="M54.25 23.7368H22.75V27.2105H27.125C27.6062 27.2105 28 27.5977 28 28.0789V33.2895C28 33.7671 27.6099 34.1579 27.125 34.1579H22.75V39.3684H27.125C27.6062 39.3684 28 39.7556 28 40.2368V45.4474C28 45.925 27.6099 46.3158 27.125 46.3158H22.75V49.7895H54.25V23.7368ZM31.5 31.5526C31.5 31.075 31.8901 30.6842 32.375 30.6842C32.8599 30.6842 33.25 31.0714 33.25 31.5526V41.9737C33.25 42.4549 32.8599 42.8421 32.375 42.8421C31.8901 42.8421 31.5 42.4513 31.5 41.9737V31.5526ZM22.75 44.5789H26.25V41.1053H22.75V44.5789ZM22.75 32.4211H26.25V28.9474H22.75V32.4211ZM48.125 55C47.6438 55 47.25 54.6128 47.25 54.1316C47.25 53.6503 47.6438 53.2632 48.125 53.2632H55.125C55.6063 53.2632 56 53.6539 56 54.1316C56 54.6092 55.6063 55 55.125 55H48.125ZM21.875 55C21.3938 55 21 54.6128 21 54.1316C21 53.6503 21.3938 53.2632 21.875 53.2632H28.875C29.3563 53.2632 29.75 53.6539 29.75 54.1316C29.75 54.6092 29.3599 55 28.875 55H21.875ZM49.875 35.8984C50.3562 35.8984 50.75 36.2891 50.75 36.7668C50.75 37.2444 50.3562 37.6352 49.875 37.6352H48.938C48.7448 38.9632 48.1214 40.1536 47.2062 41.0582L47.1953 41.0655C46.087 42.1618 44.5594 42.8421 42.875 42.8421C41.1906 42.8421 39.6521 42.1618 38.5438 41.0618C37.4354 39.9618 36.75 38.4421 36.75 36.7632C36.75 35.0842 37.4391 33.5681 38.5438 32.4681L38.562 32.45C39.6703 31.3609 41.1943 30.6842 42.875 30.6842C44.5557 30.6842 46.0979 31.3681 47.2062 32.4681C48.1177 33.3727 48.7448 34.5668 48.938 35.8984H49.875ZM47.1625 37.6352H44.625C44.1438 37.6352 43.75 37.2444 43.75 36.7668C43.75 36.2891 44.1401 35.8984 44.625 35.8984H47.1625C46.9875 35.048 46.5646 34.2845 45.9667 33.6947C45.1755 32.9095 44.0818 32.4211 42.8714 32.4211C41.6609 32.4211 40.5672 32.9095 39.7797 33.6911C38.9885 34.4763 38.5 35.5618 38.5 36.7632C38.5 37.9645 38.9885 39.0464 39.7797 39.8316C40.5708 40.6168 41.6682 41.1016 42.8714 41.1016C44.0745 41.1016 45.1755 40.6168 45.9667 39.8316C46.5646 39.2418 46.9875 38.4783 47.1625 37.628V37.6352ZM21.875 22H55.125C55.6063 22 56 22.3908 56 22.8684V50.6579C56 51.1355 55.6063 51.5263 55.125 51.5263H21.875C21.3938 51.5263 21 51.1355 21 50.6579V22.8684C21 22.3908 21.3938 22 21.875 22Z" fill="#33CC99"/>
<path d="M202.787 97.1447C223.918 97.1447 241.049 80.0214 241.049 58.8988C241.049 37.7761 223.918 20.6528 202.787 20.6528C181.655 20.6528 164.525 37.7761 164.525 58.8988C164.525 80.0214 181.655 97.1447 202.787 97.1447Z" fill="#151515" stroke="#33CC99" stroke-dasharray="10 10"/>
<g clip-path="url(#clip1_452_353)">
<path fill-rule="evenodd" clip-rule="evenodd" d="M186.937 52.1028C185.89 51.4977 185.187 50.3676 185.187 49.0698V42.9455C185.187 42.4606 185.58 42.0706 186.062 42.0706H217.565C218.05 42.0706 218.44 42.4606 218.44 42.9455V49.0698C218.44 50.364 217.736 51.4977 216.69 52.1028V56.944C216.69 57.4289 216.296 57.8189 215.815 57.8189C215.333 57.8189 214.94 57.4252 214.94 56.944V52.5695C213.893 52.5695 212.956 52.1101 212.314 51.3847C211.673 52.1101 210.736 52.5695 209.689 52.5695C208.643 52.5695 207.706 52.1101 207.064 51.3847C206.422 52.1101 205.485 52.5695 204.439 52.5695C203.392 52.5695 202.455 52.1101 201.813 51.3847C201.172 52.1101 200.234 52.5695 199.188 52.5695C198.142 52.5695 197.204 52.1101 196.563 51.3847C195.921 52.1101 194.984 52.5695 193.937 52.5695C192.891 52.5695 191.954 52.1101 191.312 51.3847C190.67 52.1101 189.733 52.5695 188.687 52.5695V75.3171H203.563C204.048 75.3171 204.439 75.7108 204.439 76.192C204.439 76.6732 204.048 77.0669 203.563 77.0669H188.687C187.721 77.0669 186.937 76.2831 186.937 75.3171V52.1028ZM190.437 43.8204H186.937V49.0698C186.937 50.0359 187.721 50.8196 188.687 50.8196C189.653 50.8196 190.437 50.0359 190.437 49.0698V43.8204ZM211.439 43.8204V49.0698C211.439 50.0359 210.655 50.8196 209.689 50.8196C208.723 50.8196 207.939 50.0359 207.939 49.0698V43.8204H211.439ZM213.189 49.0698V43.8204H216.69V49.0698C216.69 50.0359 215.906 50.8196 214.94 50.8196C213.973 50.8196 213.189 50.0359 213.189 49.0698ZM200.938 43.8204H197.438V49.0698C197.438 50.0359 198.222 50.8196 199.188 50.8196C200.154 50.8196 200.938 50.0359 200.938 49.0698V43.8204ZM202.688 43.8204V49.0698C202.688 50.0359 203.472 50.8196 204.439 50.8196C205.405 50.8196 206.189 50.0359 206.189 49.0698V43.8204H202.688ZM195.688 43.8204V49.0698C195.688 50.0359 194.904 50.8196 193.937 50.8196C192.971 50.8196 192.187 50.0359 192.187 49.0698V43.8204H195.688ZM209.988 56.7326C210.396 57.0279 210.316 57.6294 209.911 57.9356C209.54 58.2163 209.025 58.1215 208.592 57.9465C208.391 57.8663 208.172 57.8226 207.939 57.8226H195.688C194.721 57.8226 193.937 58.6063 193.937 59.5724V68.3215C193.937 69.2875 194.721 70.0713 195.688 70.0713H203.563C204.048 70.0713 204.439 70.465 204.439 70.9462C204.439 71.4274 204.048 71.8211 203.563 71.8211H195.688C193.755 71.8211 192.187 70.2536 192.187 68.3215V59.5724C192.187 57.6403 193.755 56.0727 195.688 56.0727H207.939C208.705 56.0727 209.412 56.317 209.988 56.7362V56.7326ZM211.633 69.2182C211.169 68.8792 210.746 68.409 210.378 67.8621C209.525 66.5826 208.989 64.8838 208.989 63.4949C208.989 60.892 210.87 59.5687 213.189 59.5687C215.508 59.5687 217.39 60.892 217.39 63.4949C217.39 64.8838 216.854 66.5826 216.001 67.8621C215.636 68.409 215.213 68.8829 214.746 69.2182C215.355 69.5099 215.946 69.725 216.573 69.9364C216.774 70.002 216.978 70.0713 217.189 70.1405C217.456 70.228 217.733 70.3192 218.024 70.4176C219.355 70.866 220.187 72.1492 220.187 73.549V75.3207C220.187 76.2868 219.403 77.0706 218.436 77.0706H207.935C206.969 77.0706 206.185 76.2868 206.185 75.3207V73.549C206.185 72.1455 207.02 70.866 208.347 70.4176C208.639 70.3192 208.916 70.228 209.182 70.1405C209.394 70.0713 209.598 70.0057 209.798 69.9364C210.426 69.725 211.016 69.5099 211.625 69.2182H211.633ZM213.718 67.8038L213.189 68.1866L212.661 67.8038C212.216 67.4794 211.716 66.8378 211.326 65.9629C210.94 65.1025 210.739 64.1985 210.739 63.4949C210.739 62.6491 211.027 62.1716 211.363 61.88C211.735 61.5592 212.347 61.3186 213.189 61.3186C214.032 61.3186 214.644 61.5592 215.016 61.88C215.352 62.1716 215.64 62.6491 215.64 63.4949C215.64 64.1985 215.439 65.1025 215.053 65.9629C214.663 66.8378 214.163 67.4794 213.718 67.8038ZM217.466 72.0726C217.186 71.9779 216.92 71.8904 216.65 71.8029L216.606 71.7883C215.764 71.5149 214.9 71.2305 213.992 70.7967L213.189 70.414L212.387 70.7967C211.479 71.2305 210.615 71.5112 209.773 71.7883L209.729 71.8029C209.459 71.8904 209.193 71.9779 208.912 72.0726C208.362 72.2586 207.939 72.82 207.939 73.549V75.3207H218.44V73.549C218.44 72.8236 218.013 72.2586 217.466 72.0726Z" fill="#33CC99"/>
</g>
<path d="M311.45 173.637C332.582 173.637 349.712 156.513 349.712 135.391C349.712 114.268 332.582 97.1447 311.45 97.1447C290.319 97.1447 273.188 114.268 273.188 135.391C273.188 156.513 290.319 173.637 311.45 173.637Z" fill="#151515" stroke="#33CC99" stroke-dasharray="10 10"/>
<g clip-path="url(#clip2_452_353)">
<path fill-rule="evenodd" clip-rule="evenodd" d="M320.253 123.375C320.253 124.827 319.079 126.001 317.627 126.001C316.176 126.001 315.002 124.827 315.002 123.375C315.002 121.924 316.176 120.75 317.627 120.75C319.079 120.75 320.253 121.924 320.253 123.375ZM322.003 123.375C322.003 125.793 320.045 127.751 317.627 127.751C315.21 127.751 313.252 125.793 313.252 123.375C313.252 120.958 315.21 119 317.627 119C320.045 119 322.003 120.958 322.003 123.375ZM316.752 135.627C316.752 137.078 315.578 138.252 314.127 138.252C312.676 138.252 311.502 137.078 311.502 135.627C311.502 134.175 312.676 133.001 314.127 133.001C315.578 133.001 316.752 134.175 316.752 135.627ZM318.503 135.627C318.503 138.044 316.545 140.002 314.127 140.002C311.71 140.002 309.752 138.044 309.752 135.627C309.752 133.209 311.71 131.251 314.127 131.251C316.545 131.251 318.503 133.209 318.503 135.627ZM307.126 129.501C308.578 129.501 309.752 128.327 309.752 126.876C309.752 125.425 308.578 124.25 307.126 124.25C305.675 124.25 304.501 125.425 304.501 126.876C304.501 128.327 305.675 129.501 307.126 129.501ZM307.126 131.251C309.544 131.251 311.502 129.293 311.502 126.876C311.502 124.458 309.544 122.5 307.126 122.5C304.709 122.5 302.751 124.458 302.751 126.876C302.751 129.293 304.709 131.251 307.126 131.251ZM324.38 137.202C324.887 136.75 325.547 136.502 326.225 136.502H326.298C327.789 136.502 329 137.712 329 139.204C329 139.955 328.686 140.673 328.136 141.183L318.987 149.679C317.208 151.331 314.867 152.25 312.439 152.25H300.997V153.125C300.997 153.61 300.607 154 300.122 154H294.875C294.394 154 294 153.61 294 153.125V139.123C294 138.638 294.39 138.248 294.875 138.248H300.126C300.611 138.248 301.001 138.642 301.001 139.123V141.665C301.646 141.537 302.182 141.271 302.798 140.965L302.827 140.95C303.703 140.513 304.734 139.998 306.255 139.998C307.013 139.998 307.622 140.126 308.133 140.338C308.643 140.549 309.019 140.826 309.314 141.063C309.369 141.107 309.42 141.147 309.467 141.187C309.959 141.585 310.16 141.745 310.627 141.745H312.377C313.828 141.745 315.002 142.919 315.002 144.37C315.002 144.585 314.977 144.793 314.929 144.994C315.702 144.775 316.41 144.399 316.989 143.776L317.019 143.747L324.384 137.198L324.38 137.202ZM312.439 150.503H300.997V143.444C302.058 143.295 302.853 142.897 303.549 142.551L303.579 142.536C304.446 142.102 305.161 141.752 306.251 141.752C306.806 141.752 307.181 141.843 307.462 141.96C307.746 142.077 307.969 142.237 308.22 142.438C308.268 142.478 308.319 142.518 308.373 142.562C308.847 142.952 309.511 143.502 310.627 143.502H312.377C312.862 143.502 313.252 143.893 313.252 144.378C313.252 144.862 312.862 145.253 312.377 145.253H308.877C308.395 145.253 308.001 145.643 308.001 146.128C308.001 146.613 308.395 147.003 308.877 147.003H310.627C310.816 147.003 311.046 147.01 311.298 147.017C312.078 147.039 313.113 147.072 314.131 146.941C315.513 146.762 317.037 146.277 318.236 145.005L325.543 138.511C325.733 138.343 325.974 138.252 326.225 138.252H326.298C326.823 138.252 327.25 138.678 327.25 139.204C327.25 139.47 327.14 139.721 326.947 139.9L317.799 148.396C316.344 149.748 314.43 150.5 312.439 150.5V150.503ZM295.75 140.002V152.253H299.251V140.002H295.75Z" fill="#33CC99"/>
</g>
<path d="M404.043 266.192C425.175 266.192 442.305 249.068 442.305 227.946C442.305 206.823 425.175 189.7 404.043 189.7C382.912 189.7 365.782 206.823 365.782 227.946C365.782 249.068 382.912 266.192 404.043 266.192Z" fill="#151515" stroke="#33CC99" stroke-dasharray="10 10"/>
<g clip-path="url(#clip3_452_353)">
<g clip-path="url(#clip4_452_353)">
<path d="M392.823 211.396C392.531 210.954 391.98 210.87 391.597 211.204C389.143 213.337 387.939 214.713 386.174 217.401C385.886 217.842 385.963 218.472 386.349 218.801C386.736 219.13 387.287 219.042 387.575 218.601C389.238 216.067 390.324 214.821 392.655 212.796C393.038 212.462 393.114 211.833 392.823 211.396Z" fill="#33CC99"/>
<path d="M415.404 211.204C415.021 210.87 414.47 210.954 414.178 211.396C413.887 211.833 413.96 212.462 414.346 212.796C416.676 214.821 417.763 216.067 419.426 218.601C419.717 219.042 420.264 219.13 420.651 218.801C421.037 218.472 421.114 217.842 420.826 217.401C419.061 214.713 417.858 213.337 415.404 211.204Z" fill="#33CC99"/>
<path fill-rule="evenodd" clip-rule="evenodd" d="M406.599 229.5C406.599 231.432 405.076 233 403.2 233C401.323 233 399.8 231.432 399.8 229.5C399.8 228.851 399.974 228.243 400.271 227.721L393.25 220.493C392.917 220.15 392.917 219.596 393.25 219.257C393.582 218.914 394.121 218.914 394.45 219.257L401.472 226.486C401.978 226.179 402.569 226.001 403.2 226.001C403.83 226.001 404.421 226.176 404.928 226.486L408.55 222.756C408.883 222.414 409.421 222.414 409.75 222.756C410.083 223.099 410.083 223.653 409.75 223.992L406.128 227.721C406.425 228.243 406.599 228.851 406.599 229.5ZM404.899 229.5C404.899 230.466 404.138 231.25 403.2 231.25C402.261 231.25 401.5 230.466 401.5 229.5C401.5 228.534 402.261 227.751 403.2 227.751C404.138 227.751 404.899 228.534 404.899 229.5Z" fill="#33CC99"/>
<path d="M420.624 232.774C420.526 233.263 420.045 233.548 419.574 233.421C419.108 233.293 418.831 232.801 418.929 232.312C419.14 231.253 419.25 230.159 419.25 229.036C419.25 220.07 412.198 212.803 403.498 212.803C394.798 212.803 387.747 220.07 387.747 229.036C387.747 230.343 387.896 231.613 388.18 232.831C388.293 233.316 388.035 233.815 387.572 233.962C387.108 234.105 386.616 233.834 386.503 233.349C386.175 231.967 386 230.524 386 229.036C385.996 219.075 393.832 211 403.498 211C413.164 211 421 219.075 421 229.036C421 230.317 420.869 231.568 420.624 232.774Z" fill="#33CC99"/>
<path d="M387.375 244.79C387.526 244.92 387.721 245 387.935 245H393.117C393.606 245 394 244.588 394 244.084C394 243.58 393.606 243.167 393.117 243.167H389.944L393.003 239.998L393.017 239.979C393.367 239.609 393.628 239.189 393.79 238.727C393.956 238.265 394.018 237.768 393.982 237.257L393.974 237.184C393.93 236.699 393.801 236.245 393.584 235.833L393.555 235.779C393.319 235.348 392.992 234.97 392.576 234.66L392.557 234.649C392.167 234.363 391.807 234.198 391.42 234.107C391.052 234.019 390.706 234 390.312 234C389.539 234 388.859 234.248 388.31 234.672C387.736 235.119 387.317 235.749 387.099 236.482C386.956 236.963 387.217 237.478 387.681 237.623C388.145 237.772 388.638 237.501 388.781 237.02C388.888 236.657 389.087 236.352 389.359 236.146C389.609 235.951 389.933 235.836 390.312 235.836C390.599 235.836 390.839 235.844 391.026 235.894C391.196 235.936 391.361 236.012 391.549 236.149C391.755 236.298 391.913 236.482 392.024 236.684L392.042 236.718C392.134 236.902 392.197 237.115 392.215 237.356V237.379C392.237 237.642 392.208 237.883 392.13 238.101C392.053 238.314 391.924 238.521 391.748 238.704L387.254 243.366L387.247 243.373L387.239 243.381V243.389L387.228 243.396L387.221 243.404L387.213 243.415V243.423L387.195 243.434V243.442H387.191V243.45L387.18 243.461C387.099 243.58 387.048 243.706 387.018 243.843C386.982 244.03 387 244.232 387.074 244.412C387.14 244.572 387.243 244.702 387.372 244.798L387.375 244.79Z" fill="#33CC99"/>
<path d="M409.396 233.031C408.951 232.909 408.493 233.159 408.364 233.589L405.032 244.967C404.907 245.397 405.164 245.847 405.604 245.969C406.049 246.091 406.507 245.84 406.636 245.411L409.968 234.032C410.093 233.599 409.836 233.153 409.396 233.027V233.031Z" fill="#33CC99"/>
<path d="M413 234.916C413 235.424 413.392 235.836 413.879 235.836H417.608L413.128 243.617C412.879 244.049 413.015 244.614 413.432 244.87C413.846 245.129 414.385 244.988 414.634 244.557L419.879 235.443C419.956 235.302 420 235.138 420 234.97C420 234.794 419.956 234.637 419.883 234.496C419.802 234.351 419.696 234.233 419.546 234.141L419.509 234.118C419.385 234.05 419.238 234 419.073 234H413.883C413.396 234 413.004 234.412 413.004 234.916H413Z" fill="#33CC99"/>
<path d="M397.75 234C397.337 234 397 234.408 397 234.912V240.414C397 240.918 397.337 241.327 397.75 241.331H401.498V244.084C401.498 244.588 401.835 245 402.25 245C402.666 245 403 244.588 403 244.084V234.916C403 234.408 402.666 234 402.25 234C401.835 234 401.498 234.408 401.498 234.916V239.502H398.496V234.916C398.496 234.412 398.162 234.004 397.75 234.004V234Z" fill="#33CC99"/>
</g>
</g>
<path d="M480.567 374.81C501.698 374.81 518.829 357.687 518.829 336.564C518.829 315.442 501.698 298.318 480.567 298.318C459.436 298.318 442.305 315.442 442.305 336.564C442.305 357.687 459.436 374.81 480.567 374.81Z" fill="#151515" stroke="#33CC99" stroke-dasharray="10 10"/>
<g clip-path="url(#clip5_452_353)">
<path fill-rule="evenodd" clip-rule="evenodd" d="M470 335.75H477V341H464.75C463.784 341 463 341.784 463 342.75V349.75C463 350.716 463.784 351.5 464.75 351.5H466.5V354.125C466.5 354.61 466.89 355 467.375 355H472.625C473.11 355 473.5 354.61 473.5 354.125V351.5H487.5V354.125C487.5 354.61 487.89 355 488.375 355H493.625C494.11 355 494.5 354.61 494.5 354.125V351.5H496.25C497.216 351.5 498 350.716 498 349.75V342.75C498 341.784 497.216 341 496.25 341H484V335.75H491C491.966 335.75 492.75 334.966 492.75 334V321.75C492.75 320.784 491.966 320 491 320H470C469.034 320 468.25 320.784 468.25 321.75V334C468.25 334.966 469.034 335.75 470 335.75ZM491 321.75H470V330.5H491V321.75ZM491 332.25H470V334H491V332.25ZM489.25 353.25V351.5H492.75V353.25H489.25ZM468.25 351.5V353.25H471.75V351.5H468.25ZM478.75 341V335.75H482.25V341H478.75ZM484 344.5V342.75H496.25V344.5H484ZM484 349.75V346.25H496.25V349.75H484ZM482.25 342.75V349.75H464.75V342.75H482.25Z" fill="#33CC99"/>
</g>
<path d="M500.463 539.268C521.594 539.268 538.725 522.144 538.725 501.022C538.725 479.899 521.594 462.776 500.463 462.776C479.332 462.776 462.201 479.899 462.201 501.022C462.201 522.144 479.332 539.268 500.463 539.268Z" fill="#151515" stroke="#33CC99" stroke-dasharray="10 10"/>
<g clip-path="url(#clip6_452_353)">
<path fill-rule="evenodd" clip-rule="evenodd" d="M483.403 505.312C482.998 505.051 482.878 504.505 483.137 504.096C483.395 503.687 483.935 503.564 484.34 503.825L489.999 507.465V504.244L483.403 500.007C482.998 499.747 482.878 499.201 483.137 498.792C483.395 498.383 483.935 498.26 484.34 498.52L489.999 502.16V498.94L483.403 494.699C482.998 494.439 482.878 493.892 483.137 493.484C483.217 493.357 483.319 493.259 483.439 493.191L495.691 486.117C496.001 485.936 496.376 485.972 496.65 486.178C503.639 490.672 510.618 495.184 517.597 499.693C518.002 499.953 518.122 500.499 517.863 500.908C517.783 501.035 517.677 501.133 517.557 501.201L505.302 508.275C504.999 508.449 504.638 508.42 504.369 508.232L498.743 504.613V507.834L504.894 511.789L516.697 504.979C517.116 504.737 517.648 504.888 517.885 505.308C518.122 505.732 517.976 506.271 517.557 506.509L505.302 513.583C505.029 513.739 504.686 513.739 504.401 513.558L498.743 509.922V513.138L504.894 517.093L516.697 510.283C517.116 510.045 517.648 510.193 517.885 510.613C518.122 511.036 517.976 511.575 517.557 511.814L505.302 518.888C505.029 519.04 504.686 519.043 504.401 518.862C497.386 514.354 490.411 509.846 483.395 505.312H483.403ZM497.003 503C497.003 502.837 497.047 502.678 497.138 502.533C497.284 502.301 497.517 502.16 497.765 502.131L508.504 495.933L503.096 492.409L491.745 498.962V508.59L496.992 512.009V503.083C496.992 503.054 496.992 503.025 496.996 502.996L497.003 503ZM499.629 503.09L504.901 506.481L515.446 500.395L510.173 497.004L499.629 503.09ZM490.892 497.428L501.437 491.342L496.103 487.911L485.558 494.001L490.889 497.431L490.892 497.428Z" fill="#33CC99"/>
</g>
<path d="M336.703 518.615C357.834 518.615 374.965 501.492 374.965 480.369C374.965 459.246 357.834 442.123 336.703 442.123C315.572 442.123 298.441 459.246 298.441 480.369C298.441 501.492 315.572 518.615 336.703 518.615Z" fill="#151515" stroke="#33CC99" stroke-dasharray="10 10"/>
<g clip-path="url(#clip7_452_353)">
<path fill-rule="evenodd" clip-rule="evenodd" d="M343.499 471.876C343.499 471.395 343.893 471.001 344.374 471.001C344.855 471.001 345.249 471.391 345.249 471.876V473.626C345.249 474.107 344.859 474.501 344.374 474.501C343.889 474.501 343.499 474.111 343.499 473.626V471.876ZM337.373 483.252C337.855 483.252 338.248 483.646 338.248 484.127C338.248 484.608 337.855 485.002 337.373 485.002H335.623C335.138 485.002 334.748 484.612 334.748 484.127C334.748 483.642 335.138 483.252 335.623 483.252H337.373ZM330.373 483.252C330.854 483.252 331.248 483.642 331.248 484.127C331.248 484.612 330.854 485.002 330.373 485.002H328.622C328.141 485.002 327.747 484.612 327.747 484.127C327.747 483.642 328.137 483.252 328.622 483.252H330.373ZM344.374 483.252C344.855 483.252 345.249 483.646 345.249 484.127C345.249 484.608 344.859 485.002 344.374 485.002H342.624C342.143 485.002 341.749 484.612 341.749 484.127C341.749 483.642 342.139 483.252 342.624 483.252H344.374ZM326.872 464H335.623C336.104 464 336.498 464.39 336.498 464.875V467.504H349.625C350.106 467.504 350.496 467.898 350.496 468.379V476.999L353.923 487.27C353.971 487.38 354 487.5 354 487.627V487.711V498.129C354 498.613 353.61 499.004 353.125 499.004H319.875C319.394 499.004 319 498.613 319 498.129V487.555V487.536V487.525V487.514V487.507V487.5V487.489V487.478V487.467V487.456H319.015V487.442V487.42L319.022 487.412H319.026V487.401V487.39V487.383L319.033 487.38V487.372L319.036 487.35V487.339L319.047 487.307V487.292V487.281L322.475 477.002V468.375C322.475 467.894 322.865 467.5 323.35 467.5H325.975V464.875C325.975 464.394 326.369 464 326.85 464H326.872ZM327.747 472.751H334.748V465.75H327.747V472.751ZM339.123 492.003H333.873C333.632 492.003 333.41 492.101 333.257 492.258L333.246 492.269C333.093 492.426 332.998 492.641 332.998 492.878C332.998 493.115 333.093 493.337 333.253 493.494L333.264 493.505C333.421 493.658 333.636 493.753 333.873 493.753H339.123C339.364 493.753 339.583 493.655 339.74 493.498L339.751 493.487C339.904 493.33 339.999 493.115 339.999 492.878C339.999 492.641 339.9 492.415 339.743 492.262L339.732 492.251C339.576 492.098 339.36 492.003 339.123 492.003ZM333.873 490.253H339.123C339.842 490.253 340.498 490.548 340.976 491.022C341.453 491.503 341.752 492.16 341.752 492.878C341.752 493.596 341.457 494.253 340.979 494.73C340.502 495.208 339.845 495.503 339.127 495.503H333.877C333.158 495.503 332.502 495.208 332.028 494.734C331.547 494.256 331.255 493.6 331.255 492.878C331.255 492.156 331.55 491.503 332.024 491.026C332.506 490.548 333.162 490.253 333.88 490.253H333.873ZM337.373 479.755C337.855 479.755 338.248 480.145 338.248 480.63C338.248 481.115 337.855 481.505 337.373 481.505H335.623C335.138 481.505 334.748 481.112 334.748 480.63C334.748 480.149 335.138 479.755 335.623 479.755H337.373ZM330.373 479.755C330.854 479.755 331.248 480.145 331.248 480.63C331.248 481.115 330.854 481.505 330.373 481.505H328.622C328.141 481.505 327.747 481.112 327.747 480.63C327.747 480.149 328.137 479.755 328.622 479.755H330.373ZM344.374 479.755C344.855 479.755 345.249 480.145 345.249 480.63C345.249 481.115 344.859 481.505 344.374 481.505H342.624C342.143 481.505 341.749 481.112 341.749 480.63C341.749 480.149 342.139 479.755 342.624 479.755H344.374ZM320.75 497.253H352.25V488.503H320.75V497.253ZM321.086 486.752H351.918L349.001 478.005H323.999L321.082 486.752H321.086ZM324.251 476.255H348.753V469.247H336.502V473.622C336.502 474.104 336.112 474.497 335.627 474.497H326.876C326.395 474.497 326.001 474.104 326.001 473.622V469.247H324.251V476.251V476.255Z" fill="#33CC99"/>
</g>
<path d="M228.04 442.123C249.171 442.123 266.301 425 266.301 403.877C266.301 382.754 249.171 365.631 228.04 365.631C206.908 365.631 189.778 382.754 189.778 403.877C189.778 425 206.908 442.123 228.04 442.123Z" fill="#151515" stroke="#33CC99" stroke-dasharray="10 10"/>
<g clip-path="url(#clip8_452_353)">
<path fill-rule="evenodd" clip-rule="evenodd" d="M211 402.625C211 403.106 211.39 403.5 211.875 403.5C212.36 403.5 212.75 403.106 212.75 402.625V392.531C213.264 392.83 213.862 392.998 214.5 392.998H238.125C239.576 392.998 240.75 394.172 240.75 395.623V398.249H237.25C235.318 398.249 233.75 399.817 233.75 401.75V407.001C233.75 408.933 235.318 410.501 237.25 410.501H240.75V414.002C240.75 414.969 239.966 415.753 239 415.753H227.625C227.144 415.753 226.75 416.143 226.75 416.628C226.75 417.113 227.144 417.503 227.625 417.503H239C240.932 417.503 242.5 415.935 242.5 414.002V410.501C244.432 410.501 246 408.933 246 407.001V401.75C246 399.817 244.432 398.249 242.5 398.249V395.623C242.5 393.206 240.542 391.247 238.125 391.247H214.5C213.534 391.247 212.75 390.463 212.75 389.497C212.75 388.531 213.534 387.747 214.5 387.747H239C239.966 387.747 240.75 388.531 240.75 389.497V390.088C241.406 390.398 241.997 390.824 242.5 391.339V389.501C242.5 387.568 240.932 386 239 386H214.5C212.568 385.996 211 387.564 211 389.497V402.625ZM244.25 407.001C244.25 407.967 243.466 408.751 242.5 408.751H237.25C236.284 408.751 235.5 407.967 235.5 407.001V401.75C235.5 400.783 236.284 399.999 237.25 399.999H242.5C243.466 399.999 244.25 400.783 244.25 401.75V407.001ZM242.5 404.375C242.5 402.924 241.326 401.75 239.875 401.75C238.424 401.75 237.25 402.924 237.25 404.375C237.25 405.827 238.424 407.001 239.875 407.001C241.326 407.001 242.5 405.827 242.5 404.375ZM240.75 404.375C240.75 403.894 240.36 403.5 239.875 403.5C239.39 403.5 239 403.89 239 404.375C239 404.86 239.39 405.25 239.875 405.25C240.36 405.25 240.75 404.86 240.75 404.375ZM226.746 406.789C226.743 407.179 226.732 407.562 226.717 407.942C226.491 413.594 224.967 418.199 218.882 421C212.856 418.229 211.277 413.499 211.036 407.942C211.011 407.365 211 406.782 211 406.191C213.009 406.191 215.586 405.655 217.767 403.227C218.153 402.796 218.525 402.308 218.882 401.75C219.24 402.308 219.611 402.796 219.998 403.227C222.178 405.655 224.752 406.191 226.746 406.191V406.242C226.746 406.421 226.746 406.6 226.746 406.778V406.786V406.789ZM218.882 404.601C220.811 406.654 223.013 407.515 224.971 407.814C224.876 410.264 224.537 412.365 223.731 414.148C222.871 416.059 221.423 417.729 218.882 419.056C216.37 417.736 214.916 416.041 214.041 414.097C213.231 412.299 212.881 410.202 212.779 407.814C214.744 407.519 216.95 406.658 218.879 404.601H218.882Z" fill="#33CC99"/>
</g>
<path d="M135.446 349.568C156.578 349.568 173.708 332.445 173.708 311.322C173.708 290.199 156.578 273.076 135.446 273.076C114.315 273.076 97.1846 290.199 97.1846 311.322C97.1846 332.445 114.315 349.568 135.446 349.568Z" fill="#151515" stroke="#33CC99" stroke-dasharray="10 10"/>
<g clip-path="url(#clip9_452_353)">
<path fill-rule="evenodd" clip-rule="evenodd" d="M132.001 295.75C134.83 295.75 136.547 296.749 137.568 297.956C138.615 299.192 139.001 300.731 139.001 301.875C139.001 306.287 136.762 309.113 133.656 311.304C134.203 311.61 134.775 311.913 135.37 312.216C138.418 309.871 140.751 306.703 140.751 301.875C140.751 300.395 140.263 298.434 138.903 296.826C137.517 295.189 135.293 294 132.001 294C128.708 294 126.484 295.189 125.099 296.826C123.739 298.434 123.25 300.395 123.25 301.875C123.25 309.452 129 312.948 134.236 315.566C134.713 315.807 135.187 316.037 135.654 316.263C136.084 316.47 136.606 316.295 136.821 315.865C137.04 315.428 136.857 314.899 136.42 314.688C135.949 314.461 135.483 314.232 135.02 313.998C129.755 311.366 125.004 308.3 125.004 301.875C125.004 300.731 125.39 299.192 126.437 297.956C127.458 296.749 129.171 295.75 132.004 295.75H132.001ZM129.376 327.252C129.861 327.252 130.251 327.646 130.251 328.127C130.251 328.608 129.861 329.002 129.376 329.002H118V323.752C118 321.141 119.593 319.325 121.657 317.892C123.228 316.802 125.208 315.84 127.206 314.873C127.626 314.669 128.045 314.465 128.464 314.261C129.026 314.651 129.602 315.019 130.174 315.362C130.039 315.431 129.904 315.501 129.766 315.566C129.124 315.887 128.493 316.193 127.877 316.492C125.908 317.448 124.103 318.326 122.656 319.329C120.782 320.631 119.75 321.987 119.75 323.752V327.252H129.376ZM132.883 329.002C132.65 329.002 132.424 328.911 132.26 328.743C132.096 328.579 132.001 328.353 132.001 328.119V324.382C132.001 324.149 132.092 323.927 132.26 323.759L139.154 316.868C138.527 314.516 139.136 311.906 140.977 310.061C143.73 307.312 148.189 307.312 150.938 310.061C153.687 312.813 153.687 317.273 150.938 320.025C149.093 321.87 146.483 322.475 144.131 321.848L142.221 323.759C142.056 323.923 141.83 324.018 141.597 324.018H139.986V325.629C139.986 326.114 139.592 326.512 139.107 326.512H137.495V328.123C137.495 328.608 137.102 329.002 136.613 329.002H132.876H132.883ZM140.682 315.34C140.718 316.022 140.89 316.696 141.189 317.324L133.762 324.751V327.241H135.738V325.629C135.738 325.144 136.132 324.751 136.62 324.751H138.232V323.139C138.232 322.654 138.626 322.257 139.11 322.257H141.236L143.683 319.81C144.31 320.109 144.988 320.281 145.666 320.317C147.113 320.397 148.59 319.883 149.695 318.778C151.759 316.715 151.759 313.371 149.695 311.308C147.631 309.244 144.288 309.244 142.224 311.308C141.116 312.412 140.605 313.889 140.686 315.337L140.682 315.34ZM148.448 317.535C149.822 316.161 149.822 313.929 148.448 312.555C147.073 311.18 144.842 311.18 143.467 312.555C142.093 313.929 142.093 316.161 143.467 317.535C144.842 318.91 147.073 318.91 148.448 317.535ZM147.201 316.288C147.89 315.599 147.89 314.487 147.201 313.798C146.512 313.109 145.4 313.109 144.711 313.798C144.022 314.487 144.022 315.599 144.711 316.288C145.4 316.977 146.516 316.977 147.201 316.288Z" fill="#33CC99"/>
</g>
<path d="M58.9231 240.949C80.0544 240.949 97.1847 223.826 97.1847 202.703C97.1847 181.581 80.0544 164.458 58.9231 164.458C37.7917 164.458 20.6614 181.581 20.6614 202.703C20.6614 223.826 37.7917 240.949 58.9231 240.949Z" fill="#151515" stroke="#33CC99" stroke-dasharray="10 10"/>
<path fill-rule="evenodd" clip-rule="evenodd" d="M45.7862 193.289L56.0106 190.348L56.0872 190.325L71.0191 186.033C71.4822 185.9 71.9635 186.185 72.0911 186.662L73.8049 193.033V193.055L73.8158 193.077L75.8359 200.592C75.9635 201.07 75.6901 201.566 75.227 201.7L67.2524 204.007C67.2633 204.155 67.267 204.3 67.267 204.433C67.267 206.181 66.5814 207.763 65.4729 208.907C64.5577 209.852 63.3581 210.5 62.0162 210.696V212.767C62.0198 213.711 62.3918 214.57 62.9898 215.189C63.5951 215.815 64.4264 216.2 65.3344 216.2H75.1285C75.6098 216.2 76 216.604 76 217.1C76 217.596 75.6098 218 75.1285 218H65.338C63.9488 218 62.6908 217.419 61.7755 216.481L61.7609 216.467C60.8421 215.511 60.2696 214.204 60.2696 212.767V210.696C59.2997 210.552 58.399 210.17 57.6296 209.611C56.8274 209.026 56.1674 208.248 55.7153 207.344L53.006 208.126C52.6086 208.241 52.1965 208.048 52.0069 207.685L50.6432 205.055L45.6331 206.478C45.2393 206.618 44.7908 206.452 44.5793 206.059L41.1079 199.537C41.0751 199.474 41.0496 199.407 41.0314 199.337C40.9037 198.859 41.1772 198.363 41.6403 198.233L46.4098 196.889L45.2174 194.592C44.9877 194.155 45.1481 193.607 45.5711 193.374C45.6404 193.337 45.7097 193.307 45.7789 193.292L45.7862 193.289ZM72.3682 194.403L59.6388 198.081C59.2377 198.196 58.8293 198.003 58.6397 197.64L55.8465 192.263L47.2739 194.729L48.459 197.011L48.4663 197.029L51.8611 203.566L51.8647 203.578L53.2212 206.192L66.0564 202.485L66.0782 202.478L73.9289 200.207L72.3682 194.407V194.403ZM57.5676 191.766L59.843 196.152L71.8978 192.666L70.6435 188.007L57.564 191.766H57.5676ZM65.5203 204.503L57.4473 206.837C57.7572 207.341 58.162 207.781 58.636 208.129C59.3434 208.644 60.2112 208.948 61.1484 208.948C62.3553 208.948 63.4492 208.441 64.2405 207.626C65.0171 206.826 65.4985 205.722 65.5203 204.507V204.503ZM49.8045 203.422L47.2557 198.511L43.1718 199.663L45.7862 204.563L49.8045 203.422Z" fill="#33CC99"/>
</g>
<defs>
<clipPath id="clip0_452_353">
<rect width="539" height="539" fill="white"/>
</clipPath>
<clipPath id="clip1_452_353">
<rect width="35" height="35" fill="white" transform="translate(185.187 42.0706)"/>
</clipPath>
<clipPath id="clip2_452_353">
<rect width="35" height="35" fill="white" transform="translate(293.85 118.562)"/>
</clipPath>
<clipPath id="clip3_452_353">
<rect width="35.0144" height="35" fill="white" transform="translate(386.443 211.118)"/>
</clipPath>
<clipPath id="clip4_452_353">
<rect width="35" height="35" fill="white" transform="translate(386 211)"/>
</clipPath>
<clipPath id="clip5_452_353">
<rect width="35.0144" height="35" fill="white" transform="translate(462.967 319.736)"/>
</clipPath>
<clipPath id="clip6_452_353">
<rect width="35.0144" height="35" fill="white" transform="translate(482.863 484.194)"/>
</clipPath>
<clipPath id="clip7_452_353">
<rect width="35" height="35" fill="white" transform="translate(319.103 463.541)"/>
</clipPath>
<clipPath id="clip8_452_353">
<rect width="35" height="35" fill="white" transform="translate(211 386)"/>
</clipPath>
<clipPath id="clip9_452_353">
<rect width="35" height="35" fill="white" transform="translate(118 294)"/>
</clipPath>
</defs>
</svg>
